<svg xmlns="http://www.w3.org/2000/svg" viewBox="0 0 50 50" enable-background="new 0 0 50 50"><path fill="#FCFBF6" d="M25.4 47.5c-12.5 0-22.7-10.2-22.7-22.7S12.9 2.1 25.4 2.1s22.7 10.2 22.7 22.7-10.2 22.7-22.7 22.7zm19.1-19.6c-.7-.2-6-1.8-12.1-.8 2.5 7 3.6 12.7 3.8 13.8 4.4-2.9 7.5-7.6 8.3-13zM33 42.7c-.3-1.7-1.4-7.6-4.1-14.7h-.1c-11 3.8-14.9 11.4-15.2 12.1 3.3 2.6 7.4 4.1 11.9 4.1 2.6 0 5.1-.5 7.5-1.5zm-22.1-4.9c.4-.8 5.8-9.6 15.8-12.8.3-.1.5-.2.8-.2-.5-1.1-1-2.2-1.6-3.3-9.7 2.9-19.1 2.8-20 2.8v.6c0 4.9 1.9 9.5 5 12.9zm-4.5-17c.9 0 8.9 0 18-2.4-3.2-5.7-6.7-10.5-7.2-11.2-5.5 2.6-9.6 7.6-10.8 13.6zM20.8 5.9c.5.7 4.1 5.5 7.2 11.4 6.9-2.6 9.8-6.5 10.2-7-3.4-3-7.9-4.9-12.9-4.9-1.5 0-3 .2-4.5.5zm19.6 6.6c-.4.6-3.7 4.7-10.8 7.7.5.9.9 1.9 1.3 2.8.1.3.3.7.4 1 6.5-.8 12.9.5 13.5.6-.1-4.5-1.7-8.8-4.4-12.1z"/></svg>