<svg xmlns="http://www.w3.org/2000/svg" viewBox="0 0 50 50" enable-background="new 0 0 50 50"><path fill="#FCFBF6" d="M25.4 2.9C13 2.9 2.9 13 2.9 25.4c0 9.9 6.4 18.4 15.4 21.3 1.1.2 1.5-.5 1.5-1.1v-4.2c-6.3 1.4-7.6-2.7-7.6-2.7-1-2.6-2.5-3.3-2.5-3.3-2-1.4.2-1.4.2-1.4 2.3.2 3.4 2.3 3.4 2.3 2 3.4 5.3 2.4 6.5 1.9.2-1.5.8-2.4 1.4-3-5-.6-10.2-2.5-10.2-11.1 0-2.5.9-4.5 2.3-6-.2-.6-1-2.8.2-5.9 0 0 1.9-.6 6.2 2.3 1.8-.5 3.7-.7 5.6-.8 1.9 0 3.8.3 5.6.8 4.3-2.9 6.2-2.3 6.2-2.3 1.2 3.1.5 5.4.2 5.9 1.4 1.6 2.3 3.6 2.3 6 0 8.6-5.3 10.5-10.3 11.1.8.7 1.5 2.1 1.5 4.2v6.2c0 .6.4 1.3 1.5 1.1 8.9-3 15.4-11.4 15.4-21.3.1-12.5-9.9-22.5-22.3-22.5z"/></svg>