<svg xmlns="http://www.w3.org/2000/svg" viewBox="0 0 50 50" enable-background="new 0 0 50 50"><path fill="#FCFBF6" d="M40.3 2.5H10.5c-4.1 0-7.4 3.3-7.4 7.4v29.8c0 4.1 3.3 7.4 7.4 7.4h29.8c4.1 0 7.4-3.3 7.4-7.4V9.9c0-4.1-3.4-7.4-7.4-7.4zM17.3 22h16.1c.3.9.5 1.8.5 2.8 0 4.7-3.8 8.5-8.5 8.5s-8.5-3.8-8.5-8.5c0-1 .1-1.9.4-2.8zm24.8 0v16.7c0 1.5-1.3 2.8-2.8 2.8H11.4c-1.5 0-2.8-1.3-2.8-2.8V22H13c-.2.9-.3 1.8-.3 2.8 0 7 5.7 12.7 12.7 12.7 7 0 12.7-5.7 12.7-12.7 0-1-.1-1.9-.3-2.8h4.3zm0-9.8c0 .8-.6 1.4-1.4 1.4h-2.8c-.8 0-1.4-.6-1.4-1.4V9.4c0-.8.6-1.4 1.4-1.4h2.8c.8 0 1.4.6 1.4 1.4v2.8z"/></svg>