<?xml version="1.0" encoding="utf-8"?>
<!-- Generator: Adobe Illustrator 18.0.0, SVG Export Plug-In . SVG Version: 6.00 Build 0)  -->
<!DOCTYPE svg PUBLIC "-//W3C//DTD SVG 1.1//EN" "http://www.w3.org/Graphics/SVG/1.1/DTD/svg11.dtd">
<svg version="1.1" id="Layer_1" xmlns="http://www.w3.org/2000/svg" xmlns:xlink="http://www.w3.org/1999/xlink" x="0px" y="0px"
	 viewBox="0 0 930 360" enable-background="new 0 0 930 360" xml:space="preserve">
<g>
	<path fill="#E3FA21" d="M198,148.8c0,0.2,0.8,0.8,2.2,1.8l0.1,0.8c-0.8,1.3-4.4,3.5-10.7,6.5l-0.8-0.3c-3.1,3-7.3,5.5-12.6,7.5
		c0,0.3-0.1,0.4-0.4,0.5c-1.8,0.2-6.6,2.5-14.4,6.9c-0.7,0.1-3.8,1.8-9.2,5.1c-3.9,2.3-6.7,3.7-8.5,4.2c-7.1,4.3-15.5,9.1-25.3,14.3
		l0.4,0.7l0.1,0.8c-0.1,0.9-0.9,1.4-2.3,1.6l-0.3,0l-0.9-0.3c0,0.3,0,0.7-0.2,1.2l-0.9-0.3l-0.8,0.1l0.5,0.8l0,0.3
		c-1.3,0.1-5.9,2.4-13.6,6.8l-18.2,8.9c-1.6,10.1-4.4,23.5-8.6,40.2l0.4,0c8.1-4.5,14.6-7.7,19.3-9.5c5.8-4.2,13.9-9.1,24.5-14.6
		c0,0.3,0.2,0.4,0.5,0.4c-0.1-0.7,5.1-3.4,15.4-8.3c6.3-3.9,11.1-6.1,14.4-6.5l0.3,0l2.9,0.1l-0.5-0.7c3-2,5-3.1,6.2-3.2
		c-0.1,0.8-0.9,1.3-2.3,1.5l0,0.4l1.6-0.2c2.4-1.4,4.5-2.2,6.3-2.4l0.4,0.8c1.5-0.6,2.6-1.1,3.1-1.6l0.3,0l0.2,1.6l0.4,0l1.1-0.9
		l2-0.2l0.1,0.8c-0.5,0.1-1.1,0.6-1.8,1.5l0.5,0.7c0.1,1.1-4.4,3.6-13.5,7.6l0,0.4l1.2-0.1c3.7-1.5,6-2.6,6.6-3.2l0.8,0.3
		c0-0.3,0.3-0.8,1.1-1.3l1.7,0.7c-0.1-0.8,0.1-1.2,0.6-1.3l0.4,0c0,0.4,0.5,0.9,1.4,1.4c-0.5,0.1-3.6,1.9-9.2,5.6
		c-5.7,3.1-9.2,4.9-10.5,5.2l0,0.4l0.9-0.1c0.3,0,0.7-0.2,1.2-0.6l1.7,0.2c1.6-0.5,3.7-1.4,6.2-2.7l0.5,0.7l0,0.4l-3.9,1.7
		c0-0.3-0.2-0.4-0.4-0.4c0,0.3-0.1,0.4-0.4,0.5l0.5,0.7l0,0.4c-0.6,0.1-3.7,2-9.2,5.9c-0.9,0.1-3.4,1.7-7.6,5l0,0.3l0.4,0l1.9-0.6
		c-1.4,1.5-2.8,2.3-4.2,2.5l0.4,0.7l0,0.4l-1.3-0.6c-0.6,0.6-1.2,0.9-1.9,1l0.5,0.7l0,0.4l-1.3-0.6l-0.9,0.1l0.1,0.8l-1.2,0.1
		l-0.1-0.8c0.2,0,1.9-0.9,5-2.7l0-0.3l-0.8,0.1c-5.3,2.2-13,6.2-22.8,11.9l0.1,0.8l0.4,0c0.6-0.1,1.7-0.6,3.1-1.6l0,0.4
		c0.1,0.5-2,1.8-6.1,3.9c0.2,1.4-6.7,5.6-20.6,12.5c0-0.2-0.2-0.3-0.5-0.3c-1,1.9-5.1,4.3-12.2,7c-10.1,5.1-15.1,8.1-15,9
		c-5.6,15.6-8.4,23.7-8.3,24.2l0.4,0l42.1-21.8c0,0.3,0.2,0.4,0.5,0.4c-0.1-0.9,3-2.7,9.2-5.6c9.7-5.7,16.4-9.1,20.1-10.4
		c0.5,0.2,1.1,0.3,1.7,0.2c0.3,0,0.7-0.2,1.2-0.6l0.8,0.3c3.3-1.5,6.2-3,8.5-4.6l0.5,0.7c-1,0.5-1.6,1-1.5,1.4l0.8-0.1l1.1-0.9
		l1.3,0.6c0.9-0.6,2-1,3.2-1.1c-0.1,1.6-0.4,2.5-0.9,2.6l-0.5-0.8l0.8-0.1c-0.1-0.5-0.3-0.7-0.9-0.7c0.1,0.7-0.4,1.3-1.5,1.8l1,1.5
		c-3.1,1.8-6.4,4.1-9.9,6.9c-7.2,3.3-10.8,5.3-10.8,6.1l0.4,0l12-6.2l0.8-0.1l0.9,1.1c0.1,0.7-1.1,1.3-3.5,2l0.5,0.8
		c-1.3,1.1-6.6,4.3-16.1,9.6c0.1,0.5,0.5,0.7,1.3,0.6c6.6-3.5,10-5.2,10.4-5.3l0.5,0.8l-21,13.4l-16.1,9.9
		c-2.2,0.2-8.2,2.9-17.8,8.1c0.1,0.6-2.1,2.3-6.4,5.3l0,0.3c1.1-0.4,2-0.9,2.7-1.5l0.3,0l0.1,0.9c-1.6,0.7-2.3,1.4-2.2,2.3
		c-0.2,0-0.4-0.1-0.4-0.4c-1.1,0.4-2,0.7-2.8,0.7l0.5,0.7l0,0.4l-1.3-0.6l-0.4,0c0.2,1.6-3,3.7-9.5,6.3c-8.5,4.4-12.7,7.2-12.5,8.4
		c-1.3,3.7-2.6,5.7-3.8,6.1l-2.1-0.1c0.1,0.5-0.2,0.8-0.7,0.9l-0.8,0.1c-0.1-0.9-1.6-2-4.5-3.2c0-0.3-0.8-0.8-2.3-1.4
		c-0.1-1.3-0.6-1.9-1.4-1.9l-2.6,1.9l-0.4,0l-0.1-0.9c1.2-2.5,1.9-4.6,2.2-6.4c-0.1-1-1.3-1.5-3.5-1.6l-0.4-0.8l0.3-0.8
		c-1.4-0.8-2.7-2.3-3.7-4.5l-0.1-0.8c0.6-1.2,4.1-3.5,10.7-7c0.3-2.2,1.3-4.5,2.9-6.9l0.4,0l-0.5-0.7c4.4-6.9,6.9-13.3,7.7-19.2
		c-1.1,0.4-2,0.9-2.7,1.5c-3.1-0.6-6.3-2.6-9.6-5.9c-4.6-3.9-6.9-6.5-7.1-7.8l-0.6-1.9c3.5-3.4,13.9-8.8,31.3-16.2
		c1.2-0.1,3.2-7,6.3-20.7c1.5-3.9,2.4-7.1,2.6-9.6l0.8-0.5l-0.5-0.7c0.6-0.1,1.4-3.9,2.4-11.4c-1.2,1-2.2,1.6-3.1,1.7l-1.2,0.1
		c-5.9-1.6-9.6-3.2-11.2-5l0-0.3c-0.1-1,6.3-4.5,19.3-10.4l1.7-3l-0.2-1.6l-0.9-1.1c0-0.5,0.2-0.8,0.7-0.9c0,0.2,0.2,0.3,0.5,0.3
		c0.5-1.4,1-2.1,1.4-2.2c1.2-0.1,4,0.8,8.4,2.7l0.4,0c18.3-8.6,47.5-23.7,87.7-45.3C182.5,153.5,193.3,149.3,198,148.8z
		 M118.5,290.4c0.1,0.6,0.4,0.8,0.9,0.8l0.3-0.9L118.5,290.4z M138.7,280.8l0,0.4c0.1,0.5-0.2,0.8-0.7,0.9l-2.1,0.2
		C135.9,281.7,136.8,281.2,138.7,280.8z M144.2,242.3l0,0.3c0.1,0.6-0.2,0.9-0.7,1l-1.2,0.1l-0.1-0.9
		C143.1,242.7,143.7,242.5,144.2,242.3z M147.4,219.8c0.2,0.6,0.5,0.8,1,0.8l0.2-0.9L147.4,219.8z M151.4,226.3l0,0.3l0.3,0l2-0.6
		l-0.1-0.9l-0.4,0C152.5,225.9,151.9,226.3,151.4,226.3z M162.6,227.5l1.2-0.1c0.1,0.6-0.6,1.1-1.9,1.4l0-0.4
		C161.9,227.9,162.1,227.6,162.6,227.5z"/>
	<path fill="#E3FA21" d="M287.9,148.7l0.3-0.1l1.1,0.4c-0.1-0.4,0.2-0.7,0.9-0.8c2.3,0,5.5,1.5,9.5,4.7l2.4,1.9
		c0.5,0,0.7,0.1,0.8,0.5l0.1,0.3c-4.4,20.7-17.2,58.9-38.4,114.4c-7.3,19.7-11,32.6-11.2,38.7c-0.4,0.8-0.6,1.1-0.8,1.2l-0.3,0.1
		c-0.5-0.3-1.2-0.4-2.1-0.2c0.1,0.4-0.1,0.7-0.6,0.8l-2.7-3.2c-1.9-0.1-2.9-0.6-3-1.4c-0.1-0.4-0.8-0.7-2.2-0.9
		c0.2,0.9,0,1.4-0.4,1.5l-0.8-0.9c-0.2-0.9-0.2-2.4-0.2-4.5c-0.1-0.7-0.6-1.5-1.5-2.4l-0.1-0.3c0.3-0.7,0.5-2.9,0.5-6.5
		c1.3-1.6,2.2-4.4,2.8-8.4c1.4-6,3.6-12,6.8-18.1l0.3-0.1l-0.4-2c2-4.9,3.3-7.5,4-7.6l-0.5-0.6c2.3-4.1,5.6-12.5,10.1-25.2
		c0.5-0.1,0.9-2.2,1.1-6.4c2.8-4.5,4.8-9,5.9-13.5l0.6-0.4l0.3-0.1l0.8,0.1c-0.1-0.4,0.1-0.7,0.5-0.8l-0.7-1.6l-0.1-0.6
		c0-0.4,0.2-0.7,0.6-0.8c0.2,0,0.3,0,0.3,0.2c1.3-0.2,2.3-2.9,3.3-7.8l-0.3,0.1c-4.2,6.2-17.3,28.6-39.5,67.2
		c-3.9,6.5-7.9,10.1-11.9,10.9c-1.4-0.1-3.9-1.6-7.4-4.4l-5.6-2.7c-1.1-2.1-1.8-3.6-1.9-4.4c-1.1-10.5-1.7-19.4-1.7-26.6
		c0.2,0,0.3-0.2,0.2-0.4c-0.1-0.5-0.3-0.9-0.5-1.3c-0.3-5.2-0.5-9.9-0.4-14.3c0-0.2-0.2-0.3-0.4-0.2c-0.7-9.2-0.8-13.9-0.3-14
		l-0.7-1.5l-0.1-0.3c0-0.2,0-0.4,0.3-0.4c-0.3-0.4-0.5-0.7-0.5-0.9l0-1.7l-0.7,0.1c-0.1,1.5-4.4,13.2-12.9,34.9
		c-18.9,46.7-28.2,70.5-28,71.4l0.7,1.9c-1,2.5-2,3.8-3,4c-2.8,0.6-4.4,0.2-4.6-1.1c-0.3,0.1-0.7-0.2-1.2-0.8l-0.1-0.3l0.2-0.7
		c-0.6,0.1-2.2-0.4-5.1-1.4c-1.3,0.3-2.1-0.2-2.4-1.3c-0.4,0.1-0.7-0.1-0.8-0.5L146,308c-0.3-1.4,1-5,3.7-10.9
		c3-8.9,5.5-15.2,7.6-18.9l0.1,0.6l-0.2,0.7l0.6-0.1c2.2-5.7,5.7-13.8,10.6-24.3c2.7-5.7,5.2-12,7.6-18.9
		c9.3-22.9,17.1-44.1,23.4-63.7c0.9,0.2,1.5,0.4,1.5,0.7l0.1,0.3l-0.5,1.2c0.1,0.5,0.3,0.9,0.6,1.2c-0.1,0.5-0.2,0.9-0.1,1.1
		l0.7-0.1c0.4-1.5,0.5-3.4,0.2-5.6l0.6-0.5l0.3-0.1c3.2,1.2,6.7,3.4,10.5,6.5l0.1,0.3l0,2c0,0.2,0.2,0.3,0.4,0.3l0,1.7
		c3.2,16.4,5.5,39.6,6.8,69.4c0,1.4,0.2,3.1,0.6,5c1.4-1,5.1-6.8,10.9-17.5c5-9.4,9.1-16.6,12.5-21.6l0.3-0.1l0,1.7
		c0.9-0.8,3.7-5.1,8.4-12.9c0.2,0,1.3-1.6,3.1-4.7l5.1-10.8l-0.1-0.3l-0.9,0.8l-0.3,0.1c0-0.6,0.8-2.1,2.6-4.6l0.3-0.1l0.1,0.3
		l-0.4,1.2l0.1,0.3l0.3-0.1c4-4.4,7.3-9.5,10-15.3c0.1,0,1.2-1.9,3.3-5.7l-0.3,0.1l-3.5,4.7l-0.5-0.6c2.3-3.8,5.3-8.6,8.8-14.3
		L287.9,148.7z M149.2,300.2l0.3-0.1c0.3-0.1,0.9-1.7,1.7-4.8c1.4-2.3,2.5-5.4,3.3-9.2C152.4,291.2,150.6,295.9,149.2,300.2z
		 M172.1,251.3l0.1,0.3c0.4-0.1,0.6-0.3,0.5-0.8l-0.1-0.3C172.2,250.7,172.1,250.9,172.1,251.3z M174.4,245.4l0.2,1l0.3-0.1l0.3-2.1
		C174.8,244.3,174.6,244.6,174.4,245.4z M186.2,215.1c0.1,0.3-0.3,1.3-1.2,3l0.1,0.3l0.7-0.1c0-0.2,0.2-1.2,0.8-2.8l-0.1-0.3
		L186.2,215.1z M191.6,201l-0.2,0.7l0.1,0.7l0.3-0.1c-0.1-0.7,0-1,0.4-1.1l-0.1-0.3L191.6,201z M192.6,198.8l0.1,0.3
		c0.8-0.7,1.5-2.7,1.9-5.8C194.2,193.4,193.6,195.2,192.6,198.8z M194.6,191.9l0.1,0.6c0.3-0.1,0.6-0.5,0.7-1.4l-0.3,0.1
		C194.7,191.3,194.6,191.5,194.6,191.9z M195.4,190.7c0.7-0.8,1.2-2.1,1.7-3.7c1.7-0.3,2.9-3.2,3.5-8.6l-0.8-2.2
		C199.4,176.5,197.9,181.3,195.4,190.7z M242.4,300l-0.1,2.8l0.6-0.1l-0.1-2.4l-0.1-0.3L242.4,300z M247.4,281.9c0,0.1,0,0.6,0,1.4
		l0.6-0.1l-0.3-1.3L247.4,281.9z M257.3,244.9c0,0.2,0,0.6-0.2,1l0.3-0.1c0.4-0.1,0.6-0.3,0.5-0.8l-0.1-0.3L257.3,244.9z
		 M268.3,215.7l0.3-0.1c0.4-0.1,0.6-0.4,0.5-0.8l-0.3,0.1C268.4,215.1,268.2,215.4,268.3,215.7z M269,214.2l0.1,0.3l0.6-0.1l0.1-1.4
		C269.5,213.1,269.2,213.5,269,214.2z M274.7,198.1l0.3-0.1c0.5-0.1,0.7-0.4,0.6-0.8l-0.3,0.1C274.8,197.4,274.6,197.7,274.7,198.1z
		 M277.9,196.7l0.2,1l0.3-0.1c0-0.2,0-0.6,0.2-1L277.9,196.7z"/>
	<path fill="#E3FA21" d="M394.6,127.6c5.4,1.4,8.3,3.5,8.8,6.2c1.3,1.7,3.2,5.2,5.7,10.5c0.7,3.6-4.8,15.3-16.3,35
		c-14.7,23.7-24,38.8-27.7,45.3c-1,0.8-4.5,5.6-10.2,14.4l-3.2,5.3l1.6-0.3c2.6-1.4,5.2-2.3,7.9-2.8c-0.1-0.3,0.1-0.7,0.5-1.2l1-0.2
		l0.1,0.7c0.6-1,2.3-2,5-3c3.7-2,8-3.9,12.8-5.7c-0.1-0.5,1.5-1.2,4.8-2.2l0.5,0.3c1.9-1.4,3.5-2.4,4.8-2.9l1,0.5c0-1,1.6-2,4.9-3
		l0.5,0.3l4-2.4l1.1-0.2l0.1,0.7c-0.6,0.2-0.9,0.7-0.7,1.5l0.3,0c0.5-0.3,1-0.5,1.5-0.6l-0.1-0.6c-0.3,0.1-0.5,0-0.5-0.3
		c0.1-0.5,0.1-0.9,0.1-1.1l0.4-0.1l0.1,0.7l0.7-0.1l-0.2-1l0.2,0c0.4,0,0.6,0.2,0.6,0.5l0.1,0.3l-0.5,0.1l0.4,0.6l-0.1,0.7
		c1.6-0.5,2.7-1.1,3.3-1.6l0.5,0.3c0.3-0.5,2.1-1.4,5.6-2.7l0,0.3c0.6-0.7,2.8-1.8,6.7-3.2c0-0.2,0.1-0.4,0.4-0.4l1.2,0.1
		c0-0.3,0.3-0.8,0.9-1.5l0.4,0.6c0.9-0.3,1.3-0.6,1.3-0.9l0.5,0.2c0.3-0.1,0.4-0.3,0.3-0.7c0.3,0.2,0.6,0.3,0.8,0.2
		c2.2-1.1,3.3-1.7,3.4-1.7c-0.1-0.4-0.3-0.6-0.5-0.5c-0.2,0.3-0.5,0.4-0.6,0.5l-0.4-0.6l0.4-0.4l0.1,0.3c0.7-0.6,1.3-1,1.9-1.1
		l0.4,0.6l-0.1,0.7l0.3,0c2-0.6,3-1.1,2.9-1.6l1.7,0c0.3-0.1,1.7-0.6,4.1-1.7l1.7,0c1-0.6,1.8-1,2.6-1.1l0.5,0.3
		c0.1,0.7-0.3,1.3-1.3,1.9c0.1,0.4-0.3,0.7-1,0.8l0.4,0.6c1.3-0.5,2.2-0.9,2.6-1.2l0.1,0.3c0.1,0.5-1.9,1.4-5.8,2.8l0.1,0.6
		c0.4-0.1,1.4-0.5,3.1-1.2c0.1,0.4,0.3,0.6,0.5,0.5c0.3-0.2,0.5-0.4,0.6-0.4l0.5,0.2l0.5-0.4c0.3,0.1,0.6,0.2,0.9,0.1l0.1,0.3
		c-1.4,0.9-3.6,2.1-6.6,3.6c-0.2,0-0.3-0.1-0.3-0.3c-2.4,1-4,1.9-4.8,2.9l-0.4,0.1c-0.3,0.1-0.5-0.1-0.5-0.5l-1.1,0.6l-0.9,0.2
		c0.3,1.6-0.5,2.6-2.5,3.1l0.1,0.3l0.4-0.1c0.2,0,0.2-0.2,0.2-0.4c0.6,0.1,1.2,0.1,1.9,0c0.1,0.4-0.5,0.7-1.7,0.9l0.6,1l0.1,0.6
		l-0.4,0.1l0.1,0.3l0.7-0.1l0.2,1c-5,2.1-7.9,3.1-8.5,3.3l0.1,0.7c1.8-0.8,2.9-1.2,3.2-1.3l0.1,0.7c-6.4,2.7-10,4.4-10.8,5
		c-0.3-0.2-0.6-0.3-0.8-0.2l-1.3,0.6l-0.3-0.7l0.4-0.1l-0.1-0.3l-1.1,0.6l-1,0.2l0.1,0.7l0.3,0c0.2-0.3,0.5-0.4,0.6-0.5l0.1,0.7
		c0.1,0.4,0,0.6-0.3,0.7l-2.3,0.4l-0.5,0.8l-0.3,0c-0.2,0-0.3-0.1-0.3-0.3c-2.7,1.6-8.3,4.2-16.5,7.8c-18.1,8.7-32.8,15-44.1,18.9
		l-2.2,0.7l0-0.3l-0.4,0.3c-0.2,0-0.3,0-0.3-0.2l-1.5,0.5l-3.2,0.6c-0.3,0.2-0.4,0.4-0.3,0.8c-4.5,0.1-7.2-2.5-8.2-7.6
		c-2.4-2.5-3.9-4.7-4.7-6.6c-0.5,0.1-0.7-0.1-0.8-0.6c5.8-8.7,10.1-14.3,12.8-16.8l2.1-2.8l0.3,0.7l-0.1,0.6l0.4-0.1
		c-0.1-0.6,0.9-2.2,2.9-4.6c2-2.9,2.9-4.5,2.9-4.9c1.9-2.1,4.7-5.7,8.3-11l1.2-2.2l0.7-1.8c-0.3,0.1-0.5-0.2-0.6-0.6
		c0.5-1,0.8-1.5,0.9-1.5l0.2,0l0.1,0.3c0.1,0.6-0.1,1-0.5,1.1l0.1,0.3l0.5-0.1c3-4.5,4.7-7.3,5-8.3c0.5-0.1,0.8-1.2,0.8-3.2l0.9-1.5
		l0.4-0.1l0.1,0.6l0.3,0c0.3-0.5,0.5-0.7,0.8-0.8l-0.1-0.3l-0.6-0.9c0.1,0,0.5-0.6,1.1-1.6l0.7,0.6c1.3-1,3.1-3.9,5.5-8.8
		c0.7-0.1,1.1-1.1,1.3-2.9c-0.3-0.4-0.4-0.8-0.4-1l0.5-0.4c0,0.2,0.1,0.2,0.2,0.2l0,0.7l0.1,0.3l0.6-0.1c-0.1-0.5,0.6-2,2-4.5
		l-0.3,0c-1,1.2-1.5,2.1-1.4,2.7l-0.7,0.1l-0.1-0.7l4.1-6.1l0.3,0l0.1,0.3c-0.6,1.4-1.1,2.2-1.5,2.2l0.1,0.3l0.4-0.1
		c1.8-2.4,3.5-5.1,5.1-8c2.7-3.8,5.8-9.1,9.2-15.9c-0.1-0.4,0.4-1.5,1.3-3.3l-0.1-0.3l-3,4.9l0-0.3l2.8-6.3l0-0.3
		c-3,1-5.2,1.8-6.5,2.5l-0.1-0.3c-19,8-34.3,14-46.1,17.9l-0.1-0.3c-0.5,0.5-2.8,1.3-6.8,2.2c-0.1,0-0.2-0.1-0.2-0.2l-1.2,0.5
		l-7.2,1.3c-0.3,0.1-0.7,0-1-0.1c-0.2,0.2-0.5,0.4-0.8,0.4l-1.8,0.3c-0.9,0.2-1.9,0.5-3.1,0.9c-1.3,0.2-2.6-1.2-3.8-4.4
		c-1.1-1.3-2-2.8-2.7-4.5c-0.6,0.1-0.9-0.2-1.1-0.9l-0.5-2.9c-0.1-0.7,0.7-1.5,2.4-2.1c3.8-0.5,6.9-0.9,9.1-1.3l3.6-0.7
		c5.2-1.4,8.1-2.3,8.6-2.9l0.5,0.3c1.3-0.2,3.5-1.5,6.8-3.7c0.3,0.2,0.6,0.3,0.8,0.2l0.2,0l-0.1-0.3l-0.7,0.1
		c-0.1-0.4,0.9-0.9,2.9-1.5c0.1,0.5,0.3,0.7,0.6,0.6c0.3-0.6,1.1-1.2,2.3-1.8l1.6,0c-0.1-0.3,0.1-0.6,0.5-1.1
		c1.4-0.3,3.4-0.9,5.9-2.1l0.6,0.2c0.3-0.2,1-0.6,2.1-1c0.1,0.4,0.3,0.6,0.5,0.5l1.3-0.5l-0.4-0.6l-0.1-0.3c2.2-0.7,3.4-1.3,3.7-1.7
		c0.3,0.2,0.6,0.3,0.9,0.2l3.1-1.9c0.3,0.1,0.7,0.1,1,0.1c0-0.4,0.1-0.6,0.3-0.7l0.4-0.1l0.1,0.6l-0.4,0.1l0.1,0.3l1.8-0.3l-0.1-0.3
		l-0.4,0.1l-0.1-0.6c0.4-0.1,0.9,0,1.5,0.4c1.5-0.7,2.5-1.1,3-1.2l-0.1-0.3l-1.1,0.2l-0.1-0.6l1.1-0.2l1.8,0.3l0.1-0.6l-0.4,0.1
		l-0.1-0.7l0.9-0.2l0.8,0.6l0.8-1.2l0.2,0c1.1-0.2,2-0.1,2.6,0.2c1.3-0.5,2.1-0.9,2.4-1.2c0.3,0.2,0.6,0.3,0.9,0.2
		c0.2,0,0.4-0.2,0.6-0.5l0.5,0.3c0.1,0,0.4-0.2,0.9-0.5l1.2,0.1L394.6,127.6z M338.4,236.2l0.2,0c0.3-0.1,0.5-0.3,0.4-0.8l-0.3,0
		C338.4,235.5,338.3,235.8,338.4,236.2z M344.1,226.7l0.2,0l0.1,0.7c-0.2,0-0.5,0.3-0.8,0.8l-0.3,0
		C343.4,227.8,343.6,227.3,344.1,226.7z M346.5,222.8l0.3,0.7c-0.7,1-1.2,1.6-1.6,1.6C345.2,224.8,345.6,224.1,346.5,222.8z
		 M356.4,208.2l0.3,0c-0.1,0.9-0.2,1.4-0.5,1.4l-0.3,0l-0.1-0.3C355.8,209,356,208.7,356.4,208.2z M358.2,205.5l0.4,0.6l-0.7,0.1
		C357.9,205.8,358,205.5,358.2,205.5z M373.1,180.9l0.3,0l0.1,0.6c-0.2,0-0.4,0.2-0.6,0.5l-0.1-0.3
		C372.8,181.2,372.9,180.9,373.1,180.9z M380.2,169.1c0.3,0,0.5,0.2,0.5,0.5l-0.6,0.8l-0.3,0l-0.1-0.7
		C379.8,169.4,379.9,169.2,380.2,169.1z M384.1,162.6l0.1,0.3c-0.2,1-0.9,2.2-2.1,3.8l-0.1-0.3C382.3,165.3,383,164.1,384.1,162.6z
		 M379.9,131l0.7-0.1l0.1,0.6l-0.7,0.1L379.9,131z M385.9,159.6l0.3,0c0.1,0.3-0.1,0.7-0.5,1.2l-0.1-0.3
		C385.5,159.9,385.6,159.7,385.9,159.6z M399.2,224.7l0.1,0.3l1.1-0.2l-0.1-0.7L399.2,224.7z M389.6,153.2l0.3,0
		c0.1,0.3-0.2,0.9-0.8,1.8l-0.3,0l-0.1-0.7C388.9,154.3,389.3,153.9,389.6,153.2z M408.5,230.8c0.1,0.4,0.3,0.6,0.5,0.5l0.4-0.1
		l-0.1-0.6L408.5,230.8z M413.9,233.2l0,0.3l0.4-0.1c0.3-0.2,0.5-0.4,0.6-0.4l-0.1-0.3l-0.4,0.1C414.2,233,414,233.2,413.9,233.2z
		 M417.5,231.5l0.1,0.3l0.3,0c1.3-0.7,2.5-1.1,3.5-1.3l-0.1-0.7C421,229.9,419.7,230.4,417.5,231.5z M418,226.6l0.1,0.7l0.3,0
		c0.3-0.1,0.4-0.3,0.3-0.8L418,226.6z M419,228.2l1.1-0.2l-0.1-0.6l-0.7,0.1C419.1,227.6,419,227.8,419,228.2z M421.1,225.5l0.1,0.3
		l3.4-1.3l-0.1-0.3l-1.1,0.2C423.1,224.4,422.3,224.8,421.1,225.5z M421.4,220.7l0.2,0l1.6-0.6l-0.1-0.3l-1.4,0.3
		C421.4,220.1,421.3,220.3,421.4,220.7z M423.9,219.2l0,0.3l0.7-0.1c1.5-0.7,2.3-1,2.4-1.1l-0.1-0.3l-0.3,0L423.9,219.2z
		 M424.7,223.7l0.1,0.7l0.3,0c0.3-0.1,0.4-0.3,0.3-0.8L424.7,223.7z M427.3,225l0.4-0.1l1.6-0.6l-0.1-0.3l-1.6,0.3
		C427.3,224.4,427.2,224.6,427.3,225z M427.6,217.5l0.1,0.7l0.6-0.1c-0.1-0.5-0.3-0.7-0.6-0.6L427.6,217.5z M430.2,216.6l0.1,0.3
		l0.3,0c4.3-1.3,6.4-2.3,6.3-2.8l-0.5,0.1C433.3,215.2,431.3,216,430.2,216.6z M431.5,221.9l0.6-0.1l0.1,0.6
		c-0.3-0.1-0.5-0.2-0.7-0.1L431.5,221.9z M433.5,219.4l0.1,0.7c-0.3,0.1-0.6,0.2-0.8,0.5l-0.1-0.7
		C433.1,219.9,433.3,219.7,433.5,219.4z M437.1,214.4l1.4-0.3c0.3-0.1,0.4-0.3,0.3-0.7c-0.2,0-0.3-0.1-0.3-0.3
		C437.5,213.7,437,214.1,437.1,214.4z"/>
	<path fill="#E3FA21" d="M542.3,95.3l0,0.4l-0.5,1.2l0,0.4l1.3-0.1c0.8-0.9,2.5-1.4,5-1.7c3.3,0.3,5.1,1.5,5.3,3.8l0,0.4
		c-0.2,0.5-0.2,0.9-0.2,1.2c1.1,0,1.6,0.3,1.7,1l0,0.4c-1.1,1.3-1.7,2.1-1.7,2.5l-0.7-0.3l-1.6,0.2c0.1,0.5,0.5,0.7,1.4,0.7l0.1,0.8
		l-1.7-0.2l-0.3,0.8c1.1-0.1,1.7,0.1,1.7,0.6c-0.5,0-1.3,0.8-2.4,2.2c-0.8,0.1-3.4,1.4-7.8,3.8l0,0.4l0.3,0c2.1-1.1,3.4-1.9,4-2.4
		l0.4,0.8c-1.7,1.2-5.7,3.6-12.1,7l0,0.4l0.3,0l1.6-0.5l0.1,0.8c-0.9,0.1-3.1,1.5-6.4,4.2c-3.2,1.1-9,4.2-17.3,9.4l0.2,2.3l0.7,1.1
		c-2.5,4-6.4,11.9-11.7,23.7c-1.9,2.8-8.7,19-12.6,27.7c-0.3,0-2.9,5-8,14.8l0.3,0c3.7-2.5,7.7-4.4,11.8-5.8l0,0.4l-0.3,0.8l0.3,0
		c0.9-0.5,1.7-1.1,2.5-1.8c0.2,0,0.3,0.1,0.4,0.4c3.4-2.5,6.7-4,9.7-4.5l1.9,0.2c1.4-1.1,3.5-1.9,6.3-2.5c0,0.5,0.5,0.7,1.4,0.6
		l0.1,0.8c-0.7,0.1-1.8,1.4-3.2,3.9c-7.8,4-11.8,6.3-12.1,7l0.3,0c0.2,0,3.3-1.6,9.3-4.8c0.6,0.5,1.1,0.7,1.7,0.6l0.1,0.8l-9.5,6.4
		l-0.9,1.3l-1.9-0.2l0.4,0.8c-0.7,0.1-1.7,0.7-2.8,1.8l-0.3,0l0,0.4c1.1-0.1,1.7,0.5,1.8,1.7l-0.3,0l-1-0.6l-0.3,0l0.1,0.7l1-0.1
		c0.1,0.5-0.1,0.8-0.6,0.8l-0.7,0.1l-0.1-0.8l-0.7,0.1l0.4,0.8l0,0.4c-0.5,0-0.9,0-1.3-0.3c-0.3,0-0.9,0.7-1.7,2.1l-0.3,0l-0.7-0.3
		c-1,1.9-2,2.9-3,3l0,0.3l0.3,0l2.2-0.9l0.1,0.7c-0.6,0.1-5.7,3.4-15.3,10.1l0,0.4l0.3,0c1.3-0.7,2.1-1,2.2-1l0.1,0.8
		c-0.9,0.1-4.8,2.9-11.6,8.5c-0.2,0.7-2.3,2-6.4,4.1c0,0.3-1,1.8-3.1,4.2c0,0.3-0.3,0.7-0.9,1.2l-0.3,0l0.5-1.6l-0.3,0
		c-2.3,4.1-3.8,6.2-4.6,6.3c-1.6,1.8-3.9,3.4-6.7,4.9c-2-0.4-3-0.9-3.1-1.7l-1.3,0.1c-2.2,0.2-4.6-1.6-7-5.6
		c-0.7-0.9-2.1-1.8-4.1-2.7c-0.2-1.7-1.1-3.5-2.8-5.2l-0.2-1.6l1.4-2.5l2.3,0.2l3.3-0.3c8.2-5.7,12.3-8.8,12.4-9.4
		c-0.1-1.1,2.7-6.2,8.3-15.3l0.3,0c0.2,0,0.3,0.1,0.4,0.4c0.8-0.5,1.2-0.9,1.2-1.3l0-0.4l-0.9,0.9l-0.3,0l0-0.4
		c0.8-2.7,2.1-4.1,4.1-4.3l0-0.4c-0.4,0-0.7-0.2-0.7-0.7c2.3-1.6,4.8-5.5,7.4-11.6c0.2,0,6-13.8,9.7-20.5l-0.4-0.8
		c0.2-0.5,1-1.2,1.2-1.2c3.5-6.2,5.3-9.5,5.2-9.9c-0.4,0-0.7-0.2-0.7-0.7l0.3,0l0.7,0.3c0-0.5,0.2-0.8,0.6-0.8l-0.4-0.8l-0.1-0.7
		c0.9-0.1,1.3-0.3,1.3-0.5l-0.4-0.8c0.1-0.8,0.3-1.2,0.5-1.2l1-0.1c1.2-2.7,2-4.1,2.5-4.1l0-0.4l-0.3,0c-3.9,2.7-9.6,6.2-17.2,10.6
		c-4.1,3-6.9,4.6-8.3,4.8l-1.3,0.1c-1.6-0.7-3.1-2-4.3-3.9c-0.1-1.1-1.9-3.2-5.5-6.1c-0.1-0.9-0.7-2.3-2-4.1c0-1.1,1.1-2.3,3.2-3.8
		l-0.1-0.8l0.3,0l1.1,0.7c1.2-1.7,4.5-4,9.8-6.8c1.6-1.2,4.8-3.1,9.5-5.7c1.4-1.1,6.3-4.3,14.7-9.6c7.1-4.8,20.8-13.1,41.3-24.7
		c2.4-1.5,6.2-3.2,11.2-5L542.3,95.3z M447.7,226.1l1-0.1c0.3,0,0.7-0.6,1.2-1.7l-0.3,0C448.3,225.1,447.7,225.7,447.7,226.1z
		 M457.2,209.6l0.3,0c0.4,0,0.6-0.3,0.5-0.8l-0.3,0C457.4,208.9,457.2,209.1,457.2,209.6z M469.2,236.2l1-0.1
		c0.1,0.5-0.1,0.8-0.6,0.8l-0.3,0L469.2,236.2z M488.9,214.3l-0.7-0.3l-0.7,0.1c0,0.4-0.5,1-1.7,1.7l-0.5,1.2l0,0.4l0.3,0
		c1.1-1.2,1.9-1.8,2.4-1.8l0,0.4l3-2.7c-0.3-0.5-0.4-0.8-0.4-1.1l-0.3,0C489.5,212.9,489,213.6,488.9,214.3z M494,210l0.4,0.8
		c-2.1,0.3-3.1,0.8-3.1,1.4c0.1,0.5,0.4,0.8,1.1,0.7c1.1-0.9,2.5-1.8,4.3-2.7l-0.1-0.8l-0.3,0L494,210z M498.5,208.7l0.7-0.1
		c0.3,0,0.7,0.3,1.1,1.1l0,0.4l-0.3,0c-0.6-0.5-1-0.7-1.4-0.7L498.5,208.7z M500.7,207.4l0.6-0.1c0.4,0,0.7,0.3,0.7,0.7l0,0.4
		l-1.5,0.5c-0.5-0.2-0.8-0.3-1-0.3l-0.1-0.8l1.3-0.1L500.7,207.4z M502.9,207.1l0.3,0c0.4,0,0.7,0.3,0.7,0.7l-1,0.1L502.9,207.1z
		 M531.4,124l0.1,0.8l-1.3,0.5l-0.1-0.8L531.4,124z M537.4,112.5l0,0.4l0.7-0.1c1.1-0.9,2-1.4,2.8-1.4l-0.1-0.7l-0.3,0
		C539.2,111.8,538.2,112.4,537.4,112.5z M541.4,110.2c0.1,0.5,0.4,0.7,0.7,0.7l0.3,0l-0.1-0.7L541.4,110.2z M541.9,105.4l1-0.1
		l-0.1-0.8l-0.3,0C542.1,104.7,541.9,105,541.9,105.4z M542.7,109.7l0.1,0.8l1.3-0.1l-0.1-0.8L542.7,109.7z M546,107
		c0.1,0.5-0.4,0.8-1.2,0.9l0,0.4l1.7,0.2l-0.1-0.8l0.7-0.1l1.6,0.2C548.5,107.2,547.6,106.9,546,107z M548.2,106.4l0,0.4
		c0.7-0.1,1,0.2,1.1,0.7c0.4-0.3,0.7-0.5,0.9-0.5c-0.1-0.5-0.3-0.8-0.7-0.7L548.2,106.4z"/>
	<path fill="#E3FA21" d="M591.9,76.2l0.7-0.1c0.1,1,0.2,1.6,0.4,1.5c0.7-0.5,1.3-0.8,1.8-0.8l1.2-0.1c4.3,2.6,6.7,4.4,7.1,5.3
		l0.1,0.6c-0.9,0.6-32.4,72.2-52.7,110.1l-9.3,16.6l0.6-0.1c16.1-7.2,26-12.1,29.8-14.8c6.7-3.5,11-6.1,13-7.8l0.6,0.2l13.7-7.6
		l9.3-4.3c0.1,0.4,0.3,0.6,0.6,0.5c0-0.4,0.2-0.6,0.6-0.6l0.6-0.1l0.1,0.9l1.6-0.2c-0.1-0.8,0.8-1.3,2.7-1.5l0-0.3l-0.9,0.1
		l-0.1-0.6l2.1-0.5l0.7,0.3l9.5-4.7l0.1,0.7c-6.1,3.1-9.3,5-9.8,5.6c9.5-4.9,14.6-7.3,15.3-7.4l1.2-0.1c0.4,0,0.6,0.2,0.6,0.5
		c-3.3,2.1-5.2,3.3-5.9,3.4l0.1,0.7l2.1-0.5c0.1,0.4,0.4,0.6,0.7,0.6c0.5-0.5,1-0.8,1.5-0.8l-0.4-0.6l0-0.3l1,0.5l0.7-0.1l0.9-0.7
		l0.7-0.1l0.1,0.6l0.3,0c0.4,0,0.6-0.4,0.6-1l0.3,0c0.1,0.8,0.2,1.2,0.4,1.2c0.4-0.3,0.7-0.4,0.9-0.4l0,0.3c0,0.5-0.7,1-2.4,1.5
		l0.3,0.6c-2.8,2.3-5.7,4.3-8.8,5.9l0,0.3l0.3,0c1.9-1.3,4.1-2.4,6.6-3.5l0.1,0.6c-33.7,19.8-63,35.5-88,47.1
		c-5.9,2.2-9.4,3.4-10.3,3.5c-4.3,0.4-7.5-0.8-9.4-3.7l-5-2.7c0-0.3-0.8-1.1-2.4-2.3l0-0.3c4-6,6.8-10.7,8.4-14
		c1-1.4,2.9-4.8,5.6-10.2c1.5-1.9,2.2-3.2,2.1-4l0.3,0l0.7,0.3l0-0.3l-0.4-0.6l0.6-0.4c0,0.2,0.1,0.3,0.3,0.3
		c2.3-4.8,5.6-10.6,9.9-17.3l0.3,0l0,0.3c-0.1,0.4-0.2,0.7-0.2,0.9l0.6-0.1c0-0.4,0.5-1.5,1.6-3.2l0-0.3l-0.3,0l-1.4,1.7l-0.1-0.7
		c4.7-9.1,8.7-17.6,11.9-25.6c0.4,0,1.3-2.1,2.9-6.3c0.6-0.2,1.9-2.9,3.9-8.2c1.8-3.5,2.8-5.3,2.9-5.3l0.3,0l0.7,0.3
		C571.9,117.7,590.1,76.3,591.9,76.2z M549,164.3c0.1,0.6-0.4,1.8-1.5,3.6l0,0.3c1.1-1.2,1.8-2.5,2.1-4L549,164.3z M549.6,163.9
		c0.8-0.7,2-3.1,3.6-7.2C550.7,160.8,549.5,163.2,549.6,163.9z M607.4,179.2l0.6-0.1c0.4,0,0.6-0.3,0.6-0.6l-0.7,0.1
		C607.6,178.7,607.4,178.9,607.4,179.2z M612.1,175.9c0.1,0.4,0.3,0.6,0.7,0.6l1.4-1.4l-0.6,0.1
		C613.1,175.6,612.6,175.9,612.1,175.9z M619.3,175.2l0.1,0.7c0.2,0,0.5,0.1,0.9,0.2l0-0.3c0-0.4-0.3-0.6-0.7-0.6L619.3,175.2z
		 M619.9,181.8l0.3,0c0.8-0.4,1.2-0.7,1.1-1l-0.3,0C620.3,181.1,619.9,181.5,619.9,181.8z M621.6,180.7l0.7-0.1
		c2-1.2,3.2-1.9,3.6-1.9l0-0.3l-0.7,0.1C623,179.6,621.8,180.3,621.6,180.7z M622.3,174.4l0.9-0.1l-0.1-0.7l-0.3,0
		C622.4,173.8,622.2,174,622.3,174.4z M624,172.6l0.1,0.7l0.9-0.1c0.4,0,0.6-0.3,0.5-0.7l0.7,0.3l0.7-0.1c0-0.3-0.4-0.6-1.1-0.8
		l-0.3,0C625,172.3,624.5,172.6,624,172.6z M626.4,171.5l0,0.3l0.6-0.1l0.1,0.9l-0.2,0.6l0.6-0.1c0.3,0,0.6-0.4,0.8-1l-1.6-0.8
		L626.4,171.5z M628.6,171.6l0.1,0.6l0.9-0.1c0-0.4-0.3-0.6-0.6-0.5L628.6,171.6z"/>
	<g>
		<polygon fill="#E3FA21" points="919.2,46.8 919.3,47.4 920.1,47.3 920,46.7 		"/>
		<path fill="#E3FA21" d="M851,29.9l-0.3,0c-0.3,0.1-0.5,0.3-0.5,0.7l0,0.3C850.9,30.5,851.1,30.2,851,29.9z"/>
		<path fill="#E3FA21" d="M920,44.3c0-0.3,0.3-0.6,1-1c-0.4-0.7-1.2-1-2.2-0.8l-0.5,0.1c-0.3,0.1-0.5,0.3-0.5,0.7
			c-0.5,0.1-2.1-0.1-5-0.5c-1.1,0.4-2,1-2.6,1.7c0,0.2,0.1,0.3,0.3,0.2c0.1,0.4-0.1,0.6-0.5,0.7l-0.8,0.1l0-0.3
			c0.5-0.1,0.8-0.3,0.7-0.7l0-0.3c-0.5,0.1-1.2,0.1-2.3,0.1l-1.6,0.6c0.1,0.5-0.2,1-0.7,1.3c-1.5,0.4-2.2,0.8-2.1,1.2l-2,0l-0.5,0.1
			l-0.6,0.4l0-0.3c-1.7,0.5-3.4,1.3-5.1,2.4c-3.8,1.4-5.7,2.3-5.6,2.7c-0.2,0-0.5,0-0.9-0.2c-1.3,0.4-1.9,0.8-1.8,1.3l-1.4-0.1
			c-0.7,0.5-2.5,1.4-5.3,2.6l-0.1-0.6l0.4-1c1.7-10.9,3.1-18.6,4.2-22.9c1.9-9.8,2.7-16,2.3-18.6c-0.1-0.5-3.1-2.5-9-6.1
			c-1.6-0.8-3.9-0.9-7-0.4c-2.7,1.9-4.4,3.4-5,4.5c-2.3,2.4-3.8,4.4-4.5,5.9c-5.9,6.4-8.7,10.5-8.4,12l-0.3,0.1l-0.6-0.3
			c0,0.2-0.4,1.1-1.3,2.7c-0.2,0-0.3-0.1-0.3-0.2c-0.3,0.1-0.5,0.3-0.5,0.7l0,0.3l0.4,0.6c-1.3,0.2-1.9,0.7-1.7,1.5
			c-0.2,0-0.3-0.1-0.3-0.2c-0.4,0.1-0.7,0.7-0.9,2c-0.2,0-0.5,0-0.9-0.2c-3.2,3.7-5.5,6.9-6.9,9.4c-0.3,0-2.9,3.4-7.9,10.1
			l-12.2,17.5c-4,5.3-6.3,8.8-7,10.3c-0.1,1.1-0.6,1.7-1.4,1.8c-1.6,2.7-2.6,4.1-3.1,4.1c0.1,1.2-0.4,1.9-1.4,2.1
			c-1.4,2.7-3.6,4.6-6.6,5.9l0-0.3c-1.4,0.7-2.1,1.3-2.1,1.6c-3.7,1.6-7.2,3.5-10.6,5.7c-5.4,2.5-9.7,4.5-12.7,6.1l0,0l-7.5,3.8
			c-3.3,1.4-13.8,7.5-13.8,7.5l-0.5-0.2l-6.6,3.3c0,0,0-0.1,0-0.1l-8.7,4.4l-12.8,7.7l-0.6-0.2c-1.9,1.7-5.9,4.3-12.2,7.9
			c-3.6,2.7-10,6.4-25.1,13.7l-0.6,0.1l8.5-16.6c18.4-37.9,30.2-66.8,35.4-86.7c2.7-11.9,9.1-27.8,9.9-28.4c0,0-5.6-1.9-9.7-4.5
			l-1.2,0.1c-0.5,0.1-1.1,0.3-1.7,0.8c-0.2,0-0.3-0.5-0.4-1.5l-0.6,0.1c-1.6,0.2-15.7,46.4-19,53.3l-0.7-0.3l-0.3,0
			c-0.1,0-1,1.8-2.6,5.3c-1.8,5.3-2.9,8-3.5,8.2c-1.4,4.1-2.2,6.2-2.6,6.3c-2.9,8-6.5,16.5-10.8,25.6l0.1,0.7l1.3-1.7l0.3,0l0,0.3
			c-1,1.7-1.5,2.8-1.4,3.3l-0.6,0.1c0-0.2,0-0.5,0.1-0.9l0-0.3l-0.2,0c-3.9,6.7-7,12.5-9.1,17.3c-0.2,0-0.3-0.1-0.3-0.3l-0.6,0.4
			l0.4,0.6l0,0.3l-0.7-0.3l-0.2,0c0.1,0.8-0.6,2.1-1.9,4c-2.5,5.4-4.2,8.8-5.1,10.2c-1.4,3.3-4,7.9-7.6,14l0,0.3
			c1.5,1.2,2.3,1.9,2.3,2.2l4.8,2.6c1.9,2.9,4.9,4.1,9,3.7c0.9-0.1,4.1-1.3,9.7-3.6c12.5-6.3,26.1-13.7,40.8-22.3l0,0l51.2-26.7l0,0
			c1.5-0.7,3-1.3,4.7-2.1l0,0.3c-4.1,5.5-9.6,12.1-16.4,19.7c-6.7,4.8-10.1,7.6-10.2,8.3l0.1,0.9c0.1,0.4,0.3,0.5,0.6,0.5
			c0,0.2,0,0.3-0.2,0.3c2,1.1,3.3,1.7,3.7,1.8c2.4,1.6,4.6,2.5,6.8,2.5c0.3-0.2,0.6-0.4,1-0.5c7.1-3.2,18.9-15.8,35.5-37.7
			c4.8-7.5,8-11.4,9.7-11.7l16.7-8.8l-0.1-0.6l-0.4-0.5l0.5-0.1c0.4-0.1,0.6,0.1,0.6,0.5l0.6-0.4l-0.4-0.5l0.3,0l0.9,0.4l0.3,0
			c0.4-0.4,1.5-0.9,3.4-1.7c3.1-1.5,6.2-3.3,9.3-5.2l-0.8-1.4c3.9-2.5,6.8-3.9,8.8-4.2c0.1,0.6,0.3,0.8,0.7,0.8l0.8-0.7l0.3,0
			l0.9,0.4l0.3,0c0.4-0.1,0.5-0.3,0.5-0.7c0.2,0,0.3,0.1,0.3,0.2c0.2,0,0.5-0.2,0.8-0.4c0.1,0.8-0.1,1.6-0.5,2.5
			c-0.5,4.4-1.1,7.2-1.9,8.2c-0.9,6.2-1.8,9.8-2.6,10.8c-0.8,5.6-1.8,10-2.8,13.2l0.4,0.5c-1.4,8.1-3,14.6-4.7,19.4l0.1,0.9l0.4,0.5
			l-0.6,0.4c-0.3,2.3-0.8,3.5-1.4,3.6c0.1,0.4,0.3,0.6,0.6,0.6c-1.3,1.3-2.4,7.2-3.3,17.5c0.5-0.1,0.9,0.6,1.4,1.9
			c-0.1,0.4-0.2,0.8-0.1,1.2l0.1,0.7l0.3,0c0.5-0.1,1-0.4,1.6-0.9c0.9,1,1.4,1.6,1.4,1.9c0.5-0.4,0.7-0.7,0.7-1c1.3,0.5,1.9,1,2,1.5
			c1.2,0,1.8,0.5,2,1.5l1.5-1.1c0.1,0.6,0.3,0.8,0.7,0.8l0.3-0.1c0.3-0.1,0.7-0.7,1.1-2c-0.2-1.4,1.1-6.7,3.8-15.8
			c1.9-9.3,3.1-14.7,3.8-16.4l8.5-39.4l4.2-18.9c1.1-0.5,1.6-1.1,1.5-1.7l1.4,0.1c1-0.2,1.5-0.6,1.6-1.2l-0.1-0.6l-0.4-0.5
			c1.1-1.2,3.2-2.5,6.3-3.8c0-0.3,0.5-1,1.7-2.1c0.2,0,0.5,0,0.9,0.2l3.7-2.2l0.6,0.2l0.5-0.4l1,0.4c0.4-0.1,0.5-0.3,0.5-0.7
			c0.2,0,0.5,0,0.9,0.2c1.7-1.1,3.3-1.8,4.8-2.3l-0.1-0.9l-0.8,0.1l0.1,0.7l-0.9,0.1c-0.1-0.5,0.4-0.9,1.6-1.2l0.3,0l0.9,0.4l0-0.3
			l-0.4-0.5c0.3-0.3,0.6-0.4,0.8-0.4l-0.1-0.6l-0.3,0c-2,0.8-3.3,1.4-4,1.8c-0.3,0.1-0.5-0.1-0.6-0.5c3.8-1.4,5.7-2.3,5.6-2.8l0-0.3
			l-0.3,0l-0.6,0.4l-0.1-0.6l1.2-0.2l0.1,0.6l0.5-0.1l0.5-0.4l-0.4-0.5l0-0.3l0.5-0.1l0.1,0.9l0.6-0.1c0.4-0.1,0.5-0.3,0.5-0.7
			c0.8,0.2,1.2,0.4,1.2,0.7l0.1,0.4l-1.6,0.3l0.1,0.6l1.4-0.2c0.4-0.1,0.5-0.3,0.5-0.7l0.6,0.2c0.5-0.4,0.8-0.8,0.7-1.1l0-0.3
			c-0.2,0-0.5,0.2-0.8,0.4c-0.9-0.6-1.5-0.9-1.8-0.9l0-0.3c1.3-0.5,2.2-1,2.6-1.7l0.9,0.5l0.9-0.1c-0.1-0.7,0.5-1.3,1.9-1.9
			c4.2-1.7,6.2-2.8,6.2-3.2l0-0.3c-0.5,0.1-1,0.4-1.6,0.9l-0.1-0.4c-0.2,0-0.4,0.2-0.8,0.5l-0.3,0l-0.1-0.7l1.4-0.2l0.5-0.4
			c0-0.2-0.2-0.5-0.4-0.8l0-0.3l1.4-0.2c0.4-0.1,0.5-0.3,0.5-0.7l-0.4-0.6l1.4,0.1c0.2,0,0.5-0.2,0.8-0.4
			C920.2,44.3,920.1,44.2,920,44.3z M693.7,106.7c-1.5,4.1-2.6,6.5-3.3,7.2C690.3,113.2,691.4,110.8,693.7,106.7z M688.4,117.9
			c1-1.8,1.4-3,1.3-3.6l0.6-0.1c-0.3,1.5-0.9,2.8-1.9,4L688.4,117.9z M867.6,38.5l-0.1-0.9c0.8-2.6,1-4.5,0.9-5.6l0-0.3l-0.5,0.4
			c-0.5,4-1,6.3-1.5,7l0,0.3l0.4,0.5c-0.2,0.3-0.6,2-1.2,5.1c0.2,0,0.3,0.1,0.3,0.2l0.3,0c0.5-2.3,0.9-3.5,1.2-3.5
			c0.1,0.6-0.7,4.7-2.4,12.2c-1.2,7.3-2.1,11-2.9,11.2c0-0.2-0.1-0.3-0.3-0.2c-0.2,0-0.3,0.1-0.2,0.3c-4.4,2.5-14.4,7.7-30,15.6
			l-0.1-0.7l0.3,0c18.1-25.4,30.2-41.8,36.6-49.1l0.1,0.9l1-2.6l0.3-0.1C868.6,35.3,867.9,38.5,867.6,38.5z M879.3,72.5l-0.6,0.1
			c0.2-0.7,0.5-1,0.7-1.1l0.3,0l0,0.3C879.8,72.2,879.7,72.5,879.3,72.5z M879.2,68.2l0-0.3c-0.1-0.3,0.1-0.6,0.5-0.7l-0.4-0.5
			l0.3,0c0.4-0.1,0.6,0.1,0.6,0.5l0.5-0.4l-0.4-0.6l0-0.3l1.3,0.8l0.8-0.1c0.9-0.6,1.3-1.1,1.2-1.5l0.6,0.2l0.3,0l0.7-0.7
			c0.4-0.1,0.6,0.1,0.6,0.5L879.2,68.2z M886.7,64.6l-0.6,0.1c-0.1-0.3,0.1-0.6,0.5-0.7l0.8-0.1l0,0.3
			C887.3,64.2,887,64.3,886.7,64.6z M887.3,63.6c-0.1-0.3,0.1-0.6,0.5-0.7c0.1,0.4,0.4,0.5,0.9,0.4l0,0.3l-0.5,0.1
			C887.8,63.6,887.5,63.5,887.3,63.6z M888.3,64.6c-0.1-0.3,0.1-0.6,0.5-0.7l0.3-0.1l0.1,0.6L888.3,64.6z M890.4,63.1
			c-0.3,0.1-0.5-0.1-0.6-0.5l0.8-0.1L890.4,63.1z M894.7,60.8l0-0.3c0.2,0,0.4-0.2,0.8-0.4l0.1,0.6L894.7,60.8z M896,60
			c-0.1-0.3,0.1-0.6,0.5-0.7l0.3-0.1l0.1,0.6L896,60z M897.5,60.4l0.3,0c0.1,0.4-0.1,0.7-0.4,0.7l-0.3,0
			C897,60.8,897.1,60.5,897.5,60.4z M906.3,46.8l-0.3,0.1l0.3-0.6l0.8-0.1l0,0.3C906.9,46.4,906.6,46.5,906.3,46.8z"/>
	</g>
	<path fill="#E3FA21" d="M641.5,161.9l5-5.1c0.6-0.6,1.2-0.9,1.8-0.9c0.5,0,1.2,0.3,1.9,1l4.9,5.3c0.5,0.7,0.7,1.2,0.7,1.8
		c0,0.6-0.3,1.2-0.9,1.9l-4.9,5.4c-0.8,0.8-1.4,1.2-1.8,1.2c-0.7,0-1.2-0.3-1.8-0.9l-5.4-6.2c-0.4-0.5-0.6-1.1-0.6-1.6
		C640.6,163.2,640.9,162.6,641.5,161.9z"/>
</g>
<g>
	<path fill="#222424" d="M195,145.8c0,0.2,0.8,0.8,2.2,1.8l0.1,0.8c-0.8,1.3-4.4,3.5-10.7,6.5l-0.8-0.3c-3.1,3-7.3,5.5-12.6,7.5
		c0,0.3-0.1,0.4-0.4,0.5c-1.8,0.2-6.6,2.5-14.4,6.9c-0.7,0.1-3.8,1.8-9.2,5.1c-3.9,2.3-6.7,3.7-8.5,4.2c-7.1,4.3-15.5,9.1-25.3,14.3
		l0.4,0.7l0.1,0.8c-0.1,0.9-0.9,1.4-2.3,1.6l-0.3,0l-0.9-0.3c0,0.3,0,0.7-0.2,1.2l-0.9-0.3l-0.8,0.1l0.5,0.8l0,0.3
		c-1.3,0.1-5.9,2.4-13.6,6.8l-18.2,8.9c-1.6,10.1-4.4,23.5-8.6,40.2l0.4,0c8.1-4.5,14.6-7.7,19.3-9.5c5.8-4.2,13.9-9.1,24.5-14.6
		c0,0.3,0.2,0.4,0.5,0.4c-0.1-0.7,5.1-3.4,15.4-8.3c6.3-3.9,11.1-6.1,14.4-6.5l0.3,0l2.9,0.1l-0.5-0.7c3-2,5-3.1,6.2-3.2
		c-0.1,0.8-0.9,1.3-2.3,1.5l0,0.4l1.6-0.2c2.4-1.4,4.5-2.2,6.3-2.4l0.4,0.8c1.5-0.6,2.6-1.1,3.1-1.6l0.3,0l0.2,1.6l0.4,0l1.1-0.9
		l2-0.2l0.1,0.8c-0.5,0.1-1.1,0.6-1.8,1.5l0.5,0.7c0.1,1.1-4.4,3.6-13.5,7.6l0,0.4l1.2-0.1c3.7-1.5,6-2.6,6.6-3.2l0.8,0.3
		c0-0.3,0.3-0.8,1.1-1.3l1.7,0.7c-0.1-0.8,0.1-1.2,0.6-1.3l0.4,0c0,0.4,0.5,0.9,1.4,1.4c-0.5,0.1-3.6,1.9-9.2,5.6
		c-5.7,3.1-9.2,4.9-10.5,5.2l0,0.4l0.9-0.1c0.3,0,0.7-0.2,1.2-0.6l1.7,0.2c1.6-0.5,3.7-1.4,6.2-2.7l0.5,0.7l0,0.4l-3.9,1.7
		c0-0.3-0.2-0.4-0.4-0.4c0,0.3-0.1,0.4-0.4,0.5l0.5,0.7l0,0.4c-0.6,0.1-3.7,2-9.2,5.9c-0.9,0.1-3.4,1.7-7.6,5l0,0.3l0.4,0l1.9-0.6
		c-1.4,1.5-2.8,2.3-4.2,2.5l0.4,0.7l0,0.4l-1.3-0.6c-0.6,0.6-1.2,0.9-1.9,1l0.5,0.7l0,0.4l-1.3-0.6l-0.9,0.1l0.1,0.8l-1.2,0.1
		l-0.1-0.8c0.2,0,1.9-0.9,5-2.7l0-0.3l-0.8,0.1c-5.3,2.2-13,6.2-22.8,11.9l0.1,0.8l0.4,0c0.6-0.1,1.7-0.6,3.1-1.6l0,0.4
		c0.1,0.5-2,1.8-6.1,3.9c0.2,1.4-6.7,5.6-20.6,12.5c0-0.2-0.2-0.3-0.5-0.3c-1,1.9-5.1,4.3-12.2,7c-10.1,5.1-15.1,8.1-15,9
		c-5.6,15.6-8.4,23.7-8.3,24.2l0.4,0l42.1-21.8c0,0.3,0.2,0.4,0.5,0.4c-0.1-0.9,3-2.7,9.2-5.6c9.7-5.7,16.4-9.1,20.1-10.4
		c0.5,0.2,1.1,0.3,1.7,0.2c0.3,0,0.7-0.2,1.2-0.6l0.8,0.3c3.3-1.5,6.2-3,8.5-4.6l0.5,0.7c-1,0.5-1.6,1-1.5,1.4l0.8-0.1l1.1-0.9
		l1.3,0.6c0.9-0.6,2-1,3.2-1.1c-0.1,1.6-0.4,2.5-0.9,2.6l-0.5-0.8l0.8-0.1c-0.1-0.5-0.3-0.7-0.9-0.7c0.1,0.7-0.4,1.3-1.5,1.8l1,1.5
		c-3.1,1.8-6.4,4.1-9.9,6.9c-7.2,3.3-10.8,5.3-10.8,6.1l0.4,0l12-6.2l0.8-0.1l0.9,1.1c0.1,0.7-1.1,1.3-3.5,2l0.5,0.8
		c-1.3,1.1-6.6,4.3-16.1,9.6c0.1,0.5,0.5,0.7,1.3,0.6c6.6-3.5,10-5.2,10.4-5.3l0.5,0.8l-21,13.4l-16.1,9.9
		c-2.2,0.2-8.2,2.9-17.8,8.1c0.1,0.6-2.1,2.3-6.4,5.3l0,0.3c1.1-0.4,2-0.9,2.7-1.5l0.3,0l0.1,0.9c-1.6,0.7-2.3,1.4-2.2,2.3
		c-0.2,0-0.4-0.1-0.4-0.4c-1.1,0.4-2,0.7-2.8,0.7l0.5,0.7l0,0.4l-1.3-0.6l-0.4,0c0.2,1.6-3,3.7-9.5,6.3c-8.5,4.4-12.7,7.2-12.5,8.4
		c-1.3,3.7-2.6,5.7-3.8,6.1l-2.1-0.1c0.1,0.5-0.2,0.8-0.7,0.9l-0.8,0.1c-0.1-0.9-1.6-2-4.5-3.2c0-0.3-0.8-0.8-2.3-1.4
		c-0.1-1.3-0.6-1.9-1.4-1.9l-2.6,1.9l-0.4,0l-0.1-0.9c1.2-2.5,1.9-4.6,2.2-6.4c-0.1-1-1.3-1.5-3.5-1.6l-0.4-0.8l0.3-0.8
		c-1.4-0.8-2.7-2.3-3.7-4.5l-0.1-0.8c0.6-1.2,4.1-3.5,10.7-7c0.3-2.2,1.3-4.5,2.9-6.9l0.4,0l-0.5-0.7c4.4-6.9,6.9-13.3,7.7-19.2
		c-1.1,0.4-2,0.9-2.7,1.5c-3.1-0.6-6.3-2.6-9.6-5.9c-4.6-3.9-6.9-6.5-7.1-7.8l-0.6-1.9c3.5-3.4,13.9-8.8,31.3-16.2
		c1.2-0.1,3.2-7,6.3-20.7c1.5-3.9,2.4-7.1,2.6-9.6l0.8-0.5l-0.5-0.7c0.6-0.1,1.4-3.9,2.4-11.4c-1.2,1-2.2,1.6-3.1,1.7l-1.2,0.1
		c-5.9-1.6-9.6-3.2-11.2-5l0-0.3c-0.1-1,6.3-4.5,19.3-10.4l1.7-3l-0.2-1.6l-0.9-1.1c0-0.5,0.2-0.8,0.7-0.9c0,0.2,0.2,0.3,0.5,0.3
		c0.5-1.4,1-2.1,1.4-2.2c1.2-0.1,4,0.8,8.4,2.7l0.4,0c18.3-8.6,47.5-23.7,87.7-45.3C179.5,150.5,190.3,146.3,195,145.8z
		 M115.5,287.4c0.1,0.6,0.4,0.8,0.9,0.8l0.3-0.9L115.5,287.4z M135.7,277.8l0,0.4c0.1,0.5-0.2,0.8-0.7,0.9l-2.1,0.2
		C132.9,278.7,133.8,278.2,135.7,277.8z M141.2,239.3l0,0.3c0.1,0.6-0.2,0.9-0.7,1l-1.2,0.1l-0.1-0.9
		C140.1,239.7,140.7,239.5,141.2,239.3z M144.4,216.8c0.2,0.6,0.5,0.8,1,0.8l0.2-0.9L144.4,216.8z M148.4,223.3l0,0.3l0.3,0l2-0.6
		l-0.1-0.9l-0.4,0C149.5,222.9,148.9,223.3,148.4,223.3z M159.6,224.5l1.2-0.1c0.1,0.6-0.6,1.1-1.9,1.4l0-0.4
		C158.9,224.9,159.1,224.6,159.6,224.5z"/>
	<path fill="#222424" d="M284.9,145.7l0.3-0.1l1.1,0.4c-0.1-0.4,0.2-0.7,0.9-0.8c2.3,0,5.5,1.5,9.5,4.7l2.4,1.9
		c0.5,0,0.7,0.1,0.8,0.5l0.1,0.3c-4.4,20.7-17.2,58.9-38.4,114.4c-7.3,19.7-11,32.6-11.2,38.7c-0.4,0.8-0.6,1.1-0.8,1.2l-0.3,0.1
		c-0.5-0.3-1.2-0.4-2.1-0.2c0.1,0.4-0.1,0.7-0.6,0.8l-2.7-3.2c-1.9-0.1-2.9-0.6-3-1.4c-0.1-0.4-0.8-0.7-2.2-0.9
		c0.2,0.9,0,1.4-0.4,1.5l-0.8-0.9c-0.2-0.9-0.2-2.4-0.2-4.5c-0.1-0.7-0.6-1.5-1.5-2.4l-0.1-0.3c0.3-0.7,0.5-2.9,0.5-6.5
		c1.3-1.6,2.2-4.4,2.8-8.4c1.4-6,3.6-12,6.8-18.1l0.3-0.1l-0.4-2c2-4.9,3.3-7.5,4-7.6l-0.5-0.6c2.3-4.1,5.6-12.5,10.1-25.2
		c0.5-0.1,0.9-2.2,1.1-6.4c2.8-4.5,4.8-9,5.9-13.5l0.6-0.4l0.3-0.1l0.8,0.1c-0.1-0.4,0.1-0.7,0.5-0.8l-0.7-1.6l-0.1-0.6
		c0-0.4,0.2-0.7,0.6-0.8c0.2,0,0.3,0,0.3,0.2c1.3-0.2,2.3-2.9,3.3-7.8l-0.3,0.1c-4.2,6.2-17.3,28.6-39.5,67.2
		c-3.9,6.5-7.9,10.1-11.9,10.9c-1.4-0.1-3.9-1.6-7.4-4.4l-5.6-2.7c-1.1-2.1-1.8-3.6-1.9-4.4c-1.1-10.5-1.7-19.4-1.7-26.6
		c0.2,0,0.3-0.2,0.2-0.4c-0.1-0.5-0.3-0.9-0.5-1.3c-0.3-5.2-0.5-9.9-0.4-14.3c0-0.2-0.2-0.3-0.4-0.2c-0.7-9.2-0.8-13.9-0.3-14
		l-0.7-1.5l-0.1-0.3c0-0.2,0-0.4,0.3-0.4c-0.3-0.4-0.5-0.7-0.5-0.9l0-1.7l-0.7,0.1c-0.1,1.5-4.4,13.2-12.9,34.9
		c-18.9,46.7-28.2,70.5-28,71.4l0.7,1.9c-1,2.5-2,3.8-3,4c-2.8,0.6-4.4,0.2-4.6-1.1c-0.3,0.1-0.7-0.2-1.2-0.8l-0.1-0.3l0.2-0.7
		c-0.6,0.1-2.2-0.4-5.1-1.4c-1.3,0.3-2.1-0.2-2.4-1.3c-0.4,0.1-0.7-0.1-0.8-0.5L143,305c-0.3-1.4,1-5,3.7-10.9
		c3-8.9,5.5-15.2,7.6-18.9l0.1,0.6l-0.2,0.7l0.6-0.1c2.2-5.7,5.7-13.8,10.6-24.3c2.7-5.7,5.2-12,7.6-18.9
		c9.3-22.9,17.1-44.1,23.4-63.7c0.9,0.2,1.5,0.4,1.5,0.7l0.1,0.3l-0.5,1.2c0.1,0.5,0.3,0.9,0.6,1.2c-0.1,0.5-0.2,0.9-0.1,1.1
		l0.7-0.1c0.4-1.5,0.5-3.4,0.2-5.6l0.6-0.5l0.3-0.1c3.2,1.2,6.7,3.4,10.5,6.5l0.1,0.3l0,2c0,0.2,0.2,0.3,0.4,0.3l0,1.7
		c3.2,16.4,5.5,39.6,6.8,69.4c0,1.4,0.2,3.1,0.6,5c1.4-1,5.1-6.8,10.9-17.5c5-9.4,9.1-16.6,12.5-21.6l0.3-0.1l0,1.7
		c0.9-0.8,3.7-5.1,8.4-12.9c0.2,0,1.3-1.6,3.1-4.7l5.1-10.8l-0.1-0.3l-0.9,0.8l-0.3,0.1c0-0.6,0.8-2.1,2.6-4.6l0.3-0.1l0.1,0.3
		l-0.4,1.2l0.1,0.3l0.3-0.1c4-4.4,7.3-9.5,10-15.3c0.1,0,1.2-1.9,3.3-5.7l-0.3,0.1l-3.5,4.7l-0.5-0.6c2.3-3.8,5.3-8.6,8.8-14.3
		L284.9,145.7z M146.2,297.2l0.3-0.1c0.3-0.1,0.9-1.7,1.7-4.8c1.4-2.3,2.5-5.4,3.3-9.2C149.4,288.2,147.6,292.9,146.2,297.2z
		 M169.1,248.3l0.1,0.3c0.4-0.1,0.6-0.3,0.5-0.8l-0.1-0.3C169.2,247.7,169.1,247.9,169.1,248.3z M171.4,242.4l0.2,1l0.3-0.1l0.3-2.1
		C171.8,241.3,171.6,241.6,171.4,242.4z M183.2,212.1c0.1,0.3-0.3,1.3-1.2,3l0.1,0.3l0.7-0.1c0-0.2,0.2-1.2,0.8-2.8l-0.1-0.3
		L183.2,212.1z M188.6,198l-0.2,0.7l0.1,0.7l0.3-0.1c-0.1-0.7,0-1,0.4-1.1l-0.1-0.3L188.6,198z M189.6,195.8l0.1,0.3
		c0.8-0.7,1.5-2.7,1.9-5.8C191.2,190.4,190.6,192.2,189.6,195.8z M191.6,188.9l0.1,0.6c0.3-0.1,0.6-0.5,0.7-1.4l-0.3,0.1
		C191.7,188.3,191.6,188.5,191.6,188.9z M192.4,187.7c0.7-0.8,1.2-2.1,1.7-3.7c1.7-0.3,2.9-3.2,3.5-8.6l-0.8-2.2
		C196.4,173.5,194.9,178.3,192.4,187.7z M239.4,297l-0.1,2.8l0.6-0.1l-0.1-2.4l-0.1-0.3L239.4,297z M244.4,278.9c0,0.1,0,0.6,0,1.4
		l0.6-0.1l-0.3-1.3L244.4,278.9z M254.3,241.9c0,0.2,0,0.6-0.2,1l0.3-0.1c0.4-0.1,0.6-0.3,0.5-0.8l-0.1-0.3L254.3,241.9z
		 M265.3,212.7l0.3-0.1c0.4-0.1,0.6-0.4,0.5-0.8l-0.3,0.1C265.4,212.1,265.2,212.4,265.3,212.7z M266,211.2l0.1,0.3l0.6-0.1l0.1-1.4
		C266.5,210.1,266.2,210.5,266,211.2z M271.7,195.1l0.3-0.1c0.5-0.1,0.7-0.4,0.6-0.8l-0.3,0.1C271.8,194.4,271.6,194.7,271.7,195.1z
		 M274.9,193.7l0.2,1l0.3-0.1c0-0.2,0-0.6,0.2-1L274.9,193.7z"/>
	<path fill="#222424" d="M391.6,124.6c5.4,1.4,8.3,3.5,8.8,6.2c1.3,1.7,3.2,5.2,5.7,10.5c0.7,3.6-4.8,15.3-16.3,35
		c-14.7,23.7-24,38.8-27.7,45.3c-1,0.8-4.5,5.6-10.2,14.4l-3.2,5.3l1.6-0.3c2.6-1.4,5.2-2.3,7.9-2.8c-0.1-0.3,0.1-0.7,0.5-1.2l1-0.2
		l0.1,0.7c0.6-1,2.3-2,5-3c3.7-2,8-3.9,12.8-5.7c-0.1-0.5,1.5-1.2,4.8-2.2l0.5,0.3c1.9-1.4,3.5-2.4,4.8-2.9l1,0.5c0-1,1.6-2,4.9-3
		l0.5,0.3l4-2.4l1.1-0.2l0.1,0.7c-0.6,0.2-0.9,0.7-0.7,1.5l0.3,0c0.5-0.3,1-0.5,1.5-0.6l-0.1-0.6c-0.3,0.1-0.5,0-0.5-0.3
		c0.1-0.5,0.1-0.9,0.1-1.1l0.4-0.1l0.1,0.7l0.7-0.1l-0.2-1l0.2,0c0.4,0,0.6,0.2,0.6,0.5l0.1,0.3l-0.5,0.1l0.4,0.6l-0.1,0.7
		c1.6-0.5,2.7-1.1,3.3-1.6l0.5,0.3c0.3-0.5,2.1-1.4,5.6-2.7l0,0.3c0.6-0.7,2.8-1.8,6.7-3.2c0-0.2,0.1-0.4,0.4-0.4l1.2,0.1
		c0-0.3,0.3-0.8,0.9-1.5l0.4,0.6c0.9-0.3,1.3-0.6,1.3-0.9l0.5,0.2c0.3-0.1,0.4-0.3,0.3-0.7c0.3,0.2,0.6,0.3,0.8,0.2
		c2.2-1.1,3.3-1.7,3.4-1.7c-0.1-0.4-0.3-0.6-0.5-0.5c-0.2,0.3-0.5,0.4-0.6,0.5l-0.4-0.6l0.4-0.4l0.1,0.3c0.7-0.6,1.3-1,1.9-1.1
		l0.4,0.6l-0.1,0.7l0.3,0c2-0.6,3-1.1,2.9-1.6l1.7,0c0.3-0.1,1.7-0.6,4.1-1.7l1.7,0c1-0.6,1.8-1,2.6-1.1l0.5,0.3
		c0.1,0.7-0.3,1.3-1.3,1.9c0.1,0.4-0.3,0.7-1,0.8l0.4,0.6c1.3-0.5,2.2-0.9,2.6-1.2l0.1,0.3c0.1,0.5-1.9,1.4-5.8,2.8l0.1,0.6
		c0.4-0.1,1.4-0.5,3.1-1.2c0.1,0.4,0.3,0.6,0.5,0.5c0.3-0.2,0.5-0.4,0.6-0.4l0.5,0.2l0.5-0.4c0.3,0.1,0.6,0.2,0.9,0.1l0.1,0.3
		c-1.4,0.9-3.6,2.1-6.6,3.6c-0.2,0-0.3-0.1-0.3-0.3c-2.4,1-4,1.9-4.8,2.9l-0.4,0.1c-0.3,0.1-0.5-0.1-0.5-0.5l-1.1,0.6l-0.9,0.2
		c0.3,1.6-0.5,2.6-2.5,3.1l0.1,0.3l0.4-0.1c0.2,0,0.2-0.2,0.2-0.4c0.6,0.1,1.2,0.1,1.9,0c0.1,0.4-0.5,0.7-1.7,0.9l0.6,1l0.1,0.6
		l-0.4,0.1l0.1,0.3l0.7-0.1l0.2,1c-5,2.1-7.9,3.1-8.5,3.3l0.1,0.7c1.8-0.8,2.9-1.2,3.2-1.3l0.1,0.7c-6.4,2.7-10,4.4-10.8,5
		c-0.3-0.2-0.6-0.3-0.8-0.2l-1.3,0.6l-0.3-0.7l0.4-0.1l-0.1-0.3l-1.1,0.6l-1,0.2l0.1,0.7l0.3,0c0.2-0.3,0.5-0.4,0.6-0.5l0.1,0.7
		c0.1,0.4,0,0.6-0.3,0.7l-2.3,0.4l-0.5,0.8l-0.3,0c-0.2,0-0.3-0.1-0.3-0.3c-2.7,1.6-8.3,4.2-16.5,7.8c-18.1,8.7-32.8,15-44.1,18.9
		l-2.2,0.7l0-0.3l-0.4,0.3c-0.2,0-0.3,0-0.3-0.2l-1.5,0.5l-3.2,0.6c-0.3,0.2-0.4,0.4-0.3,0.8c-4.5,0.1-7.2-2.5-8.2-7.6
		c-2.4-2.5-3.9-4.7-4.7-6.6c-0.5,0.1-0.7-0.1-0.8-0.6c5.8-8.7,10.1-14.3,12.8-16.8l2.1-2.8l0.3,0.7l-0.1,0.6l0.4-0.1
		c-0.1-0.6,0.9-2.2,2.9-4.6c2-2.9,2.9-4.5,2.9-4.9c1.9-2.1,4.7-5.7,8.3-11l1.2-2.2l0.7-1.8c-0.3,0.1-0.5-0.2-0.6-0.6
		c0.5-1,0.8-1.5,0.9-1.5l0.2,0l0.1,0.3c0.1,0.6-0.1,1-0.5,1.1l0.1,0.3l0.5-0.1c3-4.5,4.7-7.3,5-8.3c0.5-0.1,0.8-1.2,0.8-3.2l0.9-1.5
		l0.4-0.1l0.1,0.6l0.3,0c0.3-0.5,0.5-0.7,0.8-0.8l-0.1-0.3l-0.6-0.9c0.1,0,0.5-0.6,1.1-1.6l0.7,0.6c1.3-1,3.1-3.9,5.5-8.8
		c0.7-0.1,1.1-1.1,1.3-2.9c-0.3-0.4-0.4-0.8-0.4-1l0.5-0.4c0,0.2,0.1,0.2,0.2,0.2l0,0.7l0.1,0.3l0.6-0.1c-0.1-0.5,0.6-2,2-4.5
		l-0.3,0c-1,1.2-1.5,2.1-1.4,2.7l-0.7,0.1l-0.1-0.7l4.1-6.1l0.3,0l0.1,0.3c-0.6,1.4-1.1,2.2-1.5,2.2l0.1,0.3l0.4-0.1
		c1.8-2.4,3.5-5.1,5.1-8c2.7-3.8,5.8-9.1,9.2-15.9c-0.1-0.4,0.4-1.5,1.3-3.3l-0.1-0.3l-3,4.9l0-0.3l2.8-6.3l0-0.3
		c-3,1-5.2,1.8-6.5,2.5l-0.1-0.3c-19,8-34.3,14-46.1,17.9l-0.1-0.3c-0.5,0.5-2.8,1.3-6.8,2.2c-0.1,0-0.2-0.1-0.2-0.2l-1.2,0.5
		l-7.2,1.3c-0.3,0.1-0.7,0-1-0.1c-0.2,0.2-0.5,0.4-0.8,0.4l-1.8,0.3c-0.9,0.2-1.9,0.5-3.1,0.9c-1.3,0.2-2.6-1.2-3.8-4.4
		c-1.1-1.3-2-2.8-2.7-4.5c-0.6,0.1-0.9-0.2-1.1-0.9l-0.5-2.9c-0.1-0.7,0.7-1.5,2.4-2.1c3.8-0.5,6.9-0.9,9.1-1.3l3.6-0.7
		c5.2-1.4,8.1-2.3,8.6-2.9l0.5,0.3c1.3-0.2,3.5-1.5,6.8-3.7c0.3,0.2,0.6,0.3,0.8,0.2l0.2,0l-0.1-0.3l-0.7,0.1
		c-0.1-0.4,0.9-0.9,2.9-1.5c0.1,0.5,0.3,0.7,0.6,0.6c0.3-0.6,1.1-1.2,2.3-1.8l1.6,0c-0.1-0.3,0.1-0.6,0.5-1.1
		c1.4-0.3,3.4-0.9,5.9-2.1l0.6,0.2c0.3-0.2,1-0.6,2.1-1c0.1,0.4,0.3,0.6,0.5,0.5l1.3-0.5l-0.4-0.6l-0.1-0.3c2.2-0.7,3.4-1.3,3.7-1.7
		c0.3,0.2,0.6,0.3,0.9,0.2l3.1-1.9c0.3,0.1,0.7,0.1,1,0.1c0-0.4,0.1-0.6,0.3-0.7l0.4-0.1l0.1,0.6l-0.4,0.1l0.1,0.3l1.8-0.3l-0.1-0.3
		l-0.4,0.1l-0.1-0.6c0.4-0.1,0.9,0,1.5,0.4c1.5-0.7,2.5-1.1,3-1.2l-0.1-0.3l-1.1,0.2l-0.1-0.6l1.1-0.2l1.8,0.3l0.1-0.6l-0.4,0.1
		l-0.1-0.7l0.9-0.2l0.8,0.6l0.8-1.2l0.2,0c1.1-0.2,2-0.1,2.6,0.2c1.3-0.5,2.1-0.9,2.4-1.2c0.3,0.2,0.6,0.3,0.9,0.2
		c0.2,0,0.4-0.2,0.6-0.5l0.5,0.3c0.1,0,0.4-0.2,0.9-0.5l1.2,0.1L391.6,124.6z M335.4,233.2l0.2,0c0.3-0.1,0.5-0.3,0.4-0.8l-0.3,0
		C335.4,232.5,335.3,232.8,335.4,233.2z M341.1,223.7l0.2,0l0.1,0.7c-0.2,0-0.5,0.3-0.8,0.8l-0.3,0
		C340.4,224.8,340.6,224.3,341.1,223.7z M343.5,219.8l0.3,0.7c-0.7,1-1.2,1.6-1.6,1.6C342.1,221.8,342.6,221.1,343.5,219.8z
		 M353.4,205.2l0.3,0c-0.1,0.9-0.2,1.4-0.5,1.4l-0.3,0l-0.1-0.3C352.8,206,353,205.7,353.4,205.2z M355.2,202.5l0.4,0.6l-0.7,0.1
		C354.9,202.8,355,202.5,355.2,202.5z M370.1,177.9l0.3,0l0.1,0.6c-0.2,0-0.4,0.2-0.6,0.5l-0.1-0.3
		C369.8,178.2,369.9,177.9,370.1,177.9z M377.2,166.1c0.3,0,0.5,0.2,0.5,0.5l-0.6,0.8l-0.3,0l-0.1-0.7
		C376.8,166.4,376.9,166.2,377.2,166.1z M381.1,159.6l0.1,0.3c-0.2,1-0.9,2.2-2.1,3.8l-0.1-0.3C379.3,162.3,380,161.1,381.1,159.6z
		 M376.9,128l0.7-0.1l0.1,0.6l-0.7,0.1L376.9,128z M382.9,156.6l0.3,0c0.1,0.3-0.1,0.7-0.5,1.2l-0.1-0.3
		C382.5,156.9,382.6,156.7,382.9,156.6z M396.2,221.7l0.1,0.3l1.1-0.2l-0.1-0.7L396.2,221.7z M386.6,150.2l0.3,0
		c0.1,0.3-0.2,0.9-0.8,1.8l-0.3,0l-0.1-0.7C385.9,151.3,386.2,150.9,386.6,150.2z M405.5,227.8c0.1,0.4,0.3,0.6,0.5,0.5l0.4-0.1
		l-0.1-0.6L405.5,227.8z M410.9,230.2l0,0.3l0.4-0.1c0.3-0.2,0.5-0.4,0.6-0.4l-0.1-0.3l-0.4,0.1C411.2,230,411,230.2,410.9,230.2z
		 M414.5,228.5l0.1,0.3l0.3,0c1.3-0.7,2.5-1.1,3.5-1.3l-0.1-0.7C418,226.9,416.7,227.4,414.5,228.5z M415,223.6l0.1,0.7l0.3,0
		c0.3-0.1,0.4-0.3,0.3-0.8L415,223.6z M416,225.2l1.1-0.2l-0.1-0.6l-0.7,0.1C416.1,224.6,416,224.8,416,225.2z M418.1,222.4l0.1,0.3
		l3.4-1.3l-0.1-0.3l-1.1,0.2C420.1,221.4,419.3,221.8,418.1,222.4z M418.4,217.7l0.2,0l1.6-0.6l-0.1-0.3l-1.4,0.3
		C418.4,217.1,418.3,217.3,418.4,217.7z M420.9,216.2l0,0.3l0.7-0.1c1.5-0.7,2.3-1,2.4-1.1l-0.1-0.3l-0.3,0L420.9,216.2z
		 M421.7,220.7l0.1,0.7l0.3,0c0.3-0.1,0.4-0.3,0.3-0.8L421.7,220.7z M424.3,221.9l0.4-0.1l1.6-0.6l-0.1-0.3l-1.6,0.3
		C424.3,221.4,424.2,221.6,424.3,221.9z M424.6,214.5l0.1,0.7l0.6-0.1c-0.1-0.5-0.3-0.7-0.6-0.6L424.6,214.5z M427.2,213.6l0.1,0.3
		l0.3,0c4.3-1.3,6.4-2.3,6.3-2.8l-0.5,0.1C430.3,212.2,428.3,213,427.2,213.6z M428.5,218.9l0.6-0.1l0.1,0.6
		c-0.3-0.1-0.5-0.2-0.7-0.1L428.5,218.9z M430.5,216.4l0.1,0.7c-0.3,0.1-0.6,0.2-0.8,0.5l-0.1-0.7
		C430.1,216.9,430.3,216.7,430.5,216.4z M434.1,211.4l1.4-0.3c0.3-0.1,0.4-0.3,0.3-0.7c-0.2,0-0.3-0.1-0.3-0.3
		C434.5,210.6,434,211.1,434.1,211.4z"/>
	<path fill="#222424" d="M539.3,92.3l0,0.4l-0.5,1.2l0,0.4l1.3-0.1c0.8-0.9,2.5-1.4,5-1.7c3.3,0.3,5.1,1.5,5.3,3.8l0,0.4
		c-0.2,0.5-0.2,0.9-0.2,1.2c1.1,0,1.6,0.3,1.7,1l0,0.4c-1.1,1.3-1.7,2.1-1.7,2.5l-0.7-0.3l-1.6,0.2c0.1,0.5,0.5,0.7,1.4,0.7l0.1,0.8
		l-1.7-0.2l-0.3,0.8c1.1-0.1,1.7,0.1,1.7,0.6c-0.5,0-1.3,0.8-2.4,2.2c-0.8,0.1-3.4,1.4-7.8,3.8l0,0.4l0.3,0c2.1-1.1,3.4-1.9,4-2.4
		l0.4,0.8c-1.7,1.2-5.7,3.6-12.1,7l0,0.4l0.3,0l1.6-0.5l0.1,0.8c-0.9,0.1-3.1,1.5-6.4,4.2c-3.2,1.1-9,4.2-17.3,9.4l0.2,2.3l0.7,1.1
		c-2.5,4-6.4,11.9-11.7,23.7c-1.9,2.8-8.7,19-12.6,27.7c-0.3,0-2.9,5-8,14.8l0.3,0c3.7-2.5,7.7-4.4,11.8-5.8l0,0.4l-0.3,0.8l0.3,0
		c0.9-0.5,1.7-1.1,2.5-1.8c0.2,0,0.3,0.1,0.4,0.4c3.4-2.5,6.7-4,9.7-4.5l1.9,0.2c1.4-1.1,3.5-1.9,6.3-2.5c0,0.5,0.5,0.7,1.4,0.6
		l0.1,0.8c-0.7,0.1-1.8,1.4-3.2,3.9c-7.8,4-11.8,6.3-12.1,7l0.3,0c0.2,0,3.3-1.6,9.3-4.8c0.6,0.5,1.1,0.7,1.7,0.6l0.1,0.8l-9.5,6.4
		l-0.9,1.3l-1.9-0.2l0.4,0.8c-0.7,0.1-1.7,0.7-2.8,1.8l-0.3,0l0,0.4c1.1-0.1,1.7,0.5,1.8,1.7l-0.3,0l-1-0.6l-0.3,0l0.1,0.7l1-0.1
		c0.1,0.5-0.1,0.8-0.6,0.8l-0.7,0.1l-0.1-0.8l-0.7,0.1l0.4,0.8l0,0.4c-0.5,0-0.9,0-1.3-0.3c-0.3,0-0.9,0.7-1.7,2.1l-0.3,0l-0.7-0.3
		c-1,1.9-2,2.9-3,3l0,0.3l0.3,0l2.2-0.9l0.1,0.7c-0.6,0.1-5.7,3.4-15.3,10.1l0,0.4l0.3,0c1.3-0.7,2.1-1,2.2-1l0.1,0.8
		c-0.9,0.1-4.8,2.9-11.6,8.5c-0.2,0.7-2.3,2-6.4,4.1c0,0.3-1,1.8-3.1,4.2c0,0.3-0.3,0.7-0.9,1.2l-0.3,0l0.5-1.6l-0.3,0
		c-2.3,4.1-3.8,6.2-4.6,6.3c-1.6,1.8-3.9,3.4-6.7,4.9c-2-0.4-3-0.9-3.1-1.7l-1.3,0.1c-2.2,0.2-4.6-1.6-7-5.6
		c-0.7-0.9-2.1-1.8-4.1-2.7c-0.2-1.7-1.1-3.5-2.8-5.2l-0.2-1.6l1.4-2.5l2.3,0.2l3.3-0.3c8.2-5.7,12.3-8.8,12.4-9.4
		c-0.1-1.1,2.7-6.2,8.3-15.3l0.3,0c0.2,0,0.3,0.1,0.4,0.4c0.8-0.5,1.2-0.9,1.2-1.3l0-0.4l-0.9,0.9l-0.3,0l0-0.4
		c0.8-2.7,2.1-4.1,4.1-4.3l0-0.4c-0.4,0-0.7-0.2-0.7-0.7c2.3-1.6,4.8-5.5,7.4-11.6c0.2,0,6-13.8,9.7-20.5l-0.4-0.8
		c0.2-0.5,1-1.2,1.2-1.2c3.5-6.2,5.3-9.5,5.2-9.9c-0.4,0-0.7-0.2-0.7-0.7l0.3,0l0.7,0.3c0-0.5,0.2-0.8,0.6-0.8l-0.4-0.8l-0.1-0.7
		c0.9-0.1,1.3-0.3,1.3-0.5l-0.4-0.8c0.1-0.8,0.3-1.2,0.5-1.2l1-0.1c1.2-2.7,2-4.1,2.5-4.1l0-0.4l-0.3,0c-3.9,2.7-9.6,6.2-17.2,10.6
		c-4.1,3-6.9,4.6-8.3,4.8l-1.3,0.1c-1.6-0.7-3.1-2-4.3-3.9c-0.1-1.1-1.9-3.2-5.5-6.1c-0.1-0.9-0.7-2.3-2-4.1c0-1.1,1.1-2.3,3.2-3.8
		l-0.1-0.8l0.3,0l1.1,0.7c1.2-1.7,4.5-4,9.8-6.8c1.6-1.2,4.8-3.1,9.5-5.7c1.4-1.1,6.3-4.3,14.7-9.6c7.1-4.8,20.8-13.1,41.3-24.7
		c2.4-1.5,6.2-3.2,11.2-5L539.3,92.3z M444.7,223.1l1-0.1c0.3,0,0.7-0.6,1.2-1.7l-0.3,0C445.3,222.1,444.7,222.7,444.7,223.1z
		 M454.2,206.6l0.3,0c0.4,0,0.6-0.3,0.5-0.8l-0.3,0C454.4,205.9,454.2,206.1,454.2,206.6z M466.2,233.2l1-0.1
		c0.1,0.5-0.1,0.8-0.6,0.8l-0.3,0L466.2,233.2z M485.9,211.3l-0.7-0.3l-0.7,0.1c0,0.4-0.5,1-1.7,1.7l-0.5,1.2l0,0.4l0.3,0
		c1.1-1.2,1.9-1.8,2.4-1.8l0,0.4l3-2.7c-0.3-0.5-0.4-0.8-0.4-1.1l-0.3,0C486.5,209.9,486,210.6,485.9,211.3z M491,207l0.4,0.8
		c-2.1,0.3-3.1,0.8-3.1,1.4c0.1,0.5,0.4,0.8,1.1,0.7c1.1-0.9,2.5-1.8,4.3-2.7l-0.1-0.8l-0.3,0L491,207z M495.5,205.7l0.7-0.1
		c0.3,0,0.7,0.3,1.1,1.1l0,0.4l-0.3,0c-0.6-0.5-1-0.7-1.4-0.7L495.5,205.7z M497.7,204.4l0.6-0.1c0.4,0,0.7,0.3,0.7,0.7l0,0.4
		l-1.5,0.5c-0.5-0.2-0.8-0.3-1-0.3l-0.1-0.8l1.3-0.1L497.7,204.4z M499.9,204.1l0.3,0c0.4,0,0.7,0.3,0.7,0.7l-1,0.1L499.9,204.1z
		 M528.4,121l0.1,0.8l-1.3,0.5l-0.1-0.8L528.4,121z M534.4,109.5l0,0.4l0.7-0.1c1.1-0.9,2-1.4,2.8-1.4l-0.1-0.7l-0.3,0
		C536.2,108.8,535.2,109.4,534.4,109.5z M538.4,107.2c0.1,0.5,0.4,0.7,0.7,0.7l0.3,0l-0.1-0.7L538.4,107.2z M538.9,102.4l1-0.1
		l-0.1-0.8l-0.3,0C539.1,101.7,538.9,102,538.9,102.4z M539.7,106.7l0.1,0.8l1.3-0.1l-0.1-0.8L539.7,106.7z M543,104
		c0.1,0.5-0.4,0.8-1.2,0.9l0,0.4l1.7,0.2l-0.1-0.8l0.7-0.1l1.6,0.2C545.5,104.2,544.6,103.8,543,104z M545.2,103.4l0,0.4
		c0.7-0.1,1,0.2,1.1,0.7c0.4-0.3,0.7-0.5,0.9-0.5c-0.1-0.5-0.3-0.8-0.7-0.7L545.2,103.4z"/>
	<path fill="#222424" d="M588.9,73.2l0.7-0.1c0.1,1,0.2,1.6,0.4,1.5c0.7-0.5,1.3-0.8,1.8-0.8l1.2-0.1c4.3,2.6,6.7,4.4,7.1,5.3
		l0.1,0.6c-0.9,0.6-32.4,72.2-52.7,110.1l-9.3,16.6l0.6-0.1c16.1-7.2,26-12.1,29.8-14.8c6.7-3.5,11-6.1,13-7.8l0.6,0.2l13.7-7.6
		l9.3-4.3c0.1,0.4,0.3,0.6,0.6,0.5c0-0.4,0.2-0.6,0.6-0.6l0.6-0.1l0.1,0.9l1.6-0.2c-0.1-0.8,0.8-1.3,2.7-1.5l0-0.3l-0.9,0.1
		l-0.1-0.6l2.1-0.5l0.7,0.3l9.5-4.7l0.1,0.7c-6.1,3.1-9.3,5-9.8,5.6c9.5-4.9,14.6-7.3,15.3-7.4l1.2-0.1c0.4,0,0.6,0.2,0.6,0.5
		c-3.3,2.1-5.2,3.3-5.9,3.4l0.1,0.7l2.1-0.5c0.1,0.4,0.4,0.6,0.7,0.6c0.5-0.5,1-0.8,1.5-0.8l-0.4-0.6l0-0.3l1,0.5l0.7-0.1l0.9-0.7
		l0.7-0.1l0.1,0.6l0.3,0c0.4,0,0.6-0.4,0.6-1l0.3,0c0.1,0.8,0.2,1.2,0.4,1.2c0.4-0.3,0.7-0.4,0.9-0.4l0,0.3c0,0.5-0.7,1-2.4,1.5
		l0.3,0.6c-2.8,2.3-5.7,4.3-8.8,5.9l0,0.3l0.3,0c1.9-1.3,4.1-2.4,6.6-3.5l0.1,0.6c-33.7,19.8-63,35.5-88,47.1
		c-5.9,2.2-9.4,3.4-10.3,3.5c-4.3,0.4-7.5-0.8-9.4-3.7l-5-2.7c0-0.3-0.8-1.1-2.4-2.3l0-0.3c4-6,6.8-10.7,8.4-14
		c1-1.4,2.9-4.8,5.6-10.2c1.5-1.9,2.2-3.2,2.1-4l0.3,0l0.7,0.3l0-0.3l-0.4-0.6l0.6-0.4c0,0.2,0.1,0.3,0.3,0.3
		c2.3-4.8,5.6-10.6,9.9-17.3l0.3,0l0,0.3c-0.1,0.4-0.2,0.7-0.2,0.9l0.6-0.1c0-0.4,0.5-1.5,1.6-3.2l0-0.3l-0.3,0l-1.4,1.7l-0.1-0.7
		c4.7-9.1,8.7-17.6,11.9-25.6c0.4,0,1.3-2.1,2.9-6.3c0.6-0.2,1.9-2.9,3.9-8.2c1.8-3.5,2.8-5.3,2.9-5.3l0.3,0l0.7,0.3
		C568.9,114.7,587.1,73.3,588.9,73.2z M546,161.3c0.1,0.6-0.4,1.8-1.5,3.6l0,0.3c1.1-1.2,1.8-2.5,2.1-4L546,161.3z M546.6,160.9
		c0.8-0.7,2-3.1,3.6-7.2C547.7,157.8,546.5,160.2,546.6,160.9z M604.4,176.2l0.6-0.1c0.4,0,0.6-0.3,0.6-0.6l-0.7,0.1
		C604.6,175.7,604.4,175.9,604.4,176.2z M609.1,172.9c0.1,0.4,0.3,0.6,0.7,0.6l1.4-1.4l-0.6,0.1
		C610.1,172.6,609.6,172.9,609.1,172.9z M616.3,172.2l0.1,0.7c0.2,0,0.5,0.1,0.9,0.2l0-0.3c0-0.4-0.3-0.6-0.7-0.6L616.3,172.2z
		 M616.9,178.8l0.3,0c0.8-0.4,1.2-0.7,1.1-1l-0.3,0C617.3,178.1,616.9,178.5,616.9,178.8z M618.6,177.7l0.7-0.1
		c2-1.2,3.2-1.9,3.6-1.9l0-0.3l-0.7,0.1C620,176.6,618.8,177.3,618.6,177.7z M619.3,171.4l0.9-0.1l-0.1-0.7l-0.3,0
		C619.4,170.8,619.2,171,619.3,171.4z M621,169.6l0.1,0.7l0.9-0.1c0.4,0,0.6-0.3,0.5-0.7l0.7,0.3l0.7-0.1c0-0.3-0.4-0.6-1.1-0.8
		l-0.3,0C622,169.3,621.5,169.6,621,169.6z M623.4,168.5l0,0.3l0.6-0.1l0.1,0.9l-0.2,0.6l0.6-0.1c0.3,0,0.6-0.4,0.8-1l-1.6-0.8
		L623.4,168.5z M625.6,168.6l0.1,0.6l0.9-0.1c0-0.4-0.3-0.6-0.6-0.5L625.6,168.6z"/>
	<g>
		<polygon fill="#222424" points="916.2,43.8 916.3,44.4 917.1,44.3 917,43.7 		"/>
		<path fill="#222424" d="M848,26.9l-0.3,0c-0.3,0.1-0.5,0.3-0.5,0.7l0,0.3C847.9,27.5,848.1,27.2,848,26.9z"/>
		<path fill="#222424" d="M917,41.2c0-0.3,0.3-0.6,1-1c-0.4-0.7-1.2-1-2.2-0.8l-0.5,0.1c-0.3,0.1-0.5,0.3-0.5,0.7
			c-0.5,0.1-2.1-0.1-5-0.5c-1.1,0.4-2,1-2.6,1.7c0,0.2,0.1,0.3,0.3,0.2c0.1,0.4-0.1,0.6-0.5,0.7l-0.8,0.1l0-0.3
			c0.5-0.1,0.8-0.3,0.7-0.7l0-0.3c-0.5,0.1-1.2,0.1-2.3,0.1l-1.6,0.6c0.1,0.5-0.2,1-0.7,1.3c-1.5,0.4-2.2,0.8-2.1,1.2l-2,0l-0.5,0.1
			l-0.6,0.4l0-0.3c-1.7,0.5-3.4,1.3-5.1,2.4c-3.8,1.4-5.7,2.3-5.6,2.7c-0.2,0-0.5,0-0.9-0.2c-1.3,0.4-1.9,0.8-1.8,1.3l-1.4-0.1
			c-0.7,0.5-2.5,1.4-5.3,2.6l-0.1-0.6l0.4-1c1.7-10.9,3.1-18.6,4.2-22.9c1.9-9.8,2.7-16,2.3-18.6c-0.1-0.5-3.1-2.5-9-6.1
			c-1.6-0.8-3.9-0.9-7-0.4c-2.7,1.9-4.4,3.4-5,4.5c-2.3,2.4-3.8,4.4-4.5,5.9c-5.9,6.4-8.7,10.5-8.4,12l-0.3,0.1l-0.6-0.3
			c0,0.2-0.4,1.1-1.3,2.7c-0.2,0-0.3-0.1-0.3-0.2c-0.3,0.1-0.5,0.3-0.5,0.7l0,0.3l0.4,0.6c-1.3,0.2-1.9,0.7-1.7,1.5
			c-0.2,0-0.3-0.1-0.3-0.2c-0.4,0.1-0.7,0.7-0.9,2c-0.2,0-0.5,0-0.9-0.2c-3.2,3.7-5.5,6.9-6.9,9.4c-0.3,0-2.9,3.4-7.9,10.1
			l-12.2,17.5c-4,5.3-6.3,8.8-7,10.3c-0.1,1.1-0.6,1.7-1.4,1.8c-1.6,2.7-2.6,4.1-3.1,4.1c0.1,1.2-0.4,1.9-1.4,2.1
			c-1.4,2.7-3.6,4.6-6.6,5.9l0-0.3c-1.4,0.7-2.1,1.3-2.1,1.6c-3.7,1.6-7.2,3.5-10.6,5.7c-5.4,2.5-9.7,4.5-12.7,6.1l0,0l-7.5,3.8
			c-3.3,1.4-13.8,7.5-13.8,7.5l-0.5-0.2l-6.6,3.3c0,0,0-0.1,0-0.1l-8.7,4.4l-12.8,7.7l-0.6-0.2c-1.9,1.7-5.9,4.3-12.2,7.9
			c-3.6,2.7-10,6.4-25.1,13.7l-0.6,0.1l8.5-16.6c18.4-37.9,30.2-66.8,35.4-86.7c2.7-11.9,9.1-27.8,9.9-28.4c0,0-5.6-1.9-9.7-4.5
			l-1.2,0.1c-0.5,0.1-1.1,0.3-1.7,0.8c-0.2,0-0.3-0.5-0.4-1.5l-0.6,0.1c-1.6,0.2-15.7,46.4-19,53.3l-0.7-0.3l-0.3,0
			c-0.1,0-1,1.8-2.6,5.3c-1.8,5.3-2.9,8-3.5,8.2c-1.4,4.1-2.2,6.2-2.6,6.3c-2.9,8-6.5,16.5-10.8,25.6l0.1,0.7l1.3-1.7l0.3,0l0,0.3
			c-1,1.7-1.5,2.8-1.4,3.3l-0.6,0.1c0-0.2,0-0.5,0.1-0.9l0-0.3l-0.2,0c-3.9,6.7-7,12.5-9.1,17.3c-0.2,0-0.3-0.1-0.3-0.3l-0.6,0.4
			l0.4,0.6l0,0.3l-0.7-0.3l-0.2,0c0.1,0.8-0.6,2.1-1.9,4c-2.5,5.4-4.2,8.8-5.1,10.2c-1.4,3.3-4,7.9-7.6,14l0,0.3
			c1.5,1.2,2.3,1.9,2.3,2.2l4.8,2.6c1.9,2.9,4.9,4.1,9,3.7c0.9-0.1,4.1-1.3,9.7-3.6c12.5-6.3,26.1-13.7,40.8-22.3l0,0l51.2-26.7l0,0
			c1.5-0.7,3-1.3,4.7-2.1l0,0.3c-4.1,5.5-9.6,12.1-16.4,19.7c-6.7,4.8-10.1,7.6-10.2,8.3l0.1,0.9c0.1,0.4,0.3,0.5,0.6,0.5
			c0,0.2,0,0.3-0.2,0.3c2,1.1,3.3,1.7,3.7,1.8c2.4,1.6,4.6,2.5,6.8,2.5c0.3-0.2,0.6-0.4,1-0.5c7.1-3.2,18.9-15.8,35.5-37.7
			c4.8-7.5,8-11.4,9.7-11.7l16.7-8.8l-0.1-0.6l-0.4-0.5l0.5-0.1c0.4-0.1,0.6,0.1,0.6,0.5l0.6-0.4l-0.4-0.5l0.3,0l0.9,0.4l0.3,0
			c0.4-0.4,1.5-0.9,3.4-1.7c3.1-1.5,6.2-3.3,9.3-5.2l-0.8-1.4c3.9-2.5,6.8-3.9,8.8-4.2c0.1,0.6,0.3,0.8,0.7,0.8l0.8-0.7l0.3,0
			l0.9,0.4l0.3,0c0.4-0.1,0.5-0.3,0.5-0.7c0.2,0,0.3,0.1,0.3,0.2c0.2,0,0.5-0.2,0.8-0.4c0.1,0.8-0.1,1.6-0.5,2.5
			c-0.5,4.4-1.1,7.2-1.9,8.2c-0.9,6.2-1.8,9.8-2.6,10.8c-0.8,5.6-1.8,10-2.8,13.2l0.4,0.5c-1.4,8.1-3,14.6-4.7,19.4l0.1,0.9l0.4,0.5
			l-0.6,0.4c-0.3,2.3-0.8,3.5-1.4,3.6c0.1,0.4,0.3,0.6,0.6,0.6c-1.3,1.3-2.4,7.2-3.3,17.5c0.5-0.1,0.9,0.6,1.4,1.9
			c-0.1,0.4-0.2,0.8-0.1,1.2l0.1,0.7l0.3,0c0.5-0.1,1-0.4,1.6-0.9c0.9,1,1.4,1.6,1.4,1.9c0.5-0.4,0.7-0.7,0.7-1c1.3,0.5,1.9,1,2,1.5
			c1.2,0,1.8,0.5,2,1.5l1.5-1.1c0.1,0.6,0.3,0.8,0.7,0.8l0.3-0.1c0.3-0.1,0.7-0.7,1.1-2c-0.2-1.4,1.1-6.7,3.8-15.8
			c1.9-9.3,3.1-14.7,3.8-16.4l8.5-39.4l4.2-18.9c1.1-0.5,1.6-1.1,1.5-1.7l1.4,0.1c1-0.2,1.5-0.6,1.6-1.2l-0.1-0.6l-0.4-0.5
			c1.1-1.2,3.2-2.5,6.3-3.8c0-0.3,0.5-1,1.7-2.1c0.2,0,0.5,0,0.9,0.2l3.7-2.2l0.6,0.2l0.5-0.4l1,0.4c0.4-0.1,0.5-0.3,0.5-0.7
			c0.2,0,0.5,0,0.9,0.2c1.7-1.1,3.3-1.8,4.8-2.3l-0.1-0.9l-0.8,0.1l0.1,0.7l-0.9,0.1c-0.1-0.5,0.4-0.9,1.6-1.2l0.3,0l0.9,0.4l0-0.3
			l-0.4-0.5c0.3-0.3,0.6-0.4,0.8-0.4l-0.1-0.6l-0.3,0c-2,0.8-3.3,1.4-4,1.8c-0.3,0.1-0.5-0.1-0.6-0.5c3.8-1.4,5.7-2.3,5.6-2.8l0-0.3
			l-0.3,0l-0.6,0.4l-0.1-0.6l1.2-0.2l0.1,0.6l0.5-0.1l0.5-0.4l-0.4-0.5l0-0.3l0.5-0.1l0.1,0.9l0.6-0.1c0.4-0.1,0.5-0.3,0.5-0.7
			c0.8,0.2,1.2,0.4,1.2,0.7l0.1,0.4l-1.6,0.3l0.1,0.6l1.4-0.2c0.4-0.1,0.5-0.3,0.5-0.7l0.6,0.2c0.5-0.4,0.8-0.8,0.7-1.1l0-0.3
			c-0.2,0-0.5,0.2-0.8,0.4c-0.9-0.6-1.5-0.9-1.8-0.9l0-0.3c1.3-0.5,2.2-1,2.6-1.7l0.9,0.5l0.9-0.1c-0.1-0.7,0.5-1.3,1.9-1.9
			c4.2-1.7,6.2-2.8,6.2-3.2l0-0.3c-0.5,0.1-1,0.4-1.6,0.9l-0.1-0.4c-0.2,0-0.4,0.2-0.8,0.5l-0.3,0l-0.1-0.7l1.4-0.2l0.5-0.4
			c0-0.2-0.2-0.5-0.4-0.8l0-0.3l1.4-0.2c0.4-0.1,0.5-0.3,0.5-0.7l-0.4-0.6l1.4,0.1c0.2,0,0.5-0.2,0.8-0.4
			C917.2,41.3,917.1,41.2,917,41.2z M690.7,103.7c-1.5,4.1-2.6,6.5-3.3,7.2C687.3,110.2,688.4,107.8,690.7,103.7z M685.4,114.9
			c1-1.8,1.4-3,1.3-3.6l0.6-0.1c-0.3,1.5-0.9,2.8-1.9,4L685.4,114.9z M864.6,35.5l-0.1-0.9c0.8-2.6,1-4.5,0.9-5.6l0-0.3l-0.5,0.4
			c-0.5,4-1,6.3-1.5,7l0,0.3l0.4,0.5c-0.2,0.3-0.6,2-1.2,5.1c0.2,0,0.3,0.1,0.3,0.2l0.3,0c0.5-2.3,0.9-3.5,1.2-3.5
			c0.1,0.6-0.7,4.7-2.4,12.2c-1.2,7.3-2.1,11-2.9,11.2c0-0.2-0.1-0.3-0.3-0.2c-0.2,0-0.3,0.1-0.2,0.3c-4.4,2.5-14.4,7.7-30,15.6
			l-0.1-0.7l0.3,0c18.1-25.4,30.2-41.8,36.6-49.1l0.1,0.9l1-2.6l0.3-0.1C865.6,32.3,864.9,35.5,864.6,35.5z M876.3,69.5l-0.6,0.1
			c0.2-0.7,0.5-1,0.7-1.1l0.3,0l0,0.3C876.8,69.2,876.7,69.5,876.3,69.5z M876.2,65.2l0-0.3c-0.1-0.3,0.1-0.6,0.5-0.7l-0.4-0.5
			l0.3,0c0.4-0.1,0.6,0.1,0.6,0.5l0.5-0.4l-0.4-0.6l0-0.3l1.3,0.8l0.8-0.1c0.9-0.6,1.3-1.1,1.2-1.5l0.6,0.2l0.3,0l0.7-0.7
			c0.4-0.1,0.6,0.1,0.6,0.5L876.2,65.2z M883.7,61.6l-0.6,0.1c-0.1-0.3,0.1-0.6,0.5-0.7l0.8-0.1l0,0.3
			C884.3,61.2,884,61.3,883.7,61.6z M884.3,60.6c-0.1-0.3,0.1-0.6,0.5-0.7c0.1,0.4,0.4,0.5,0.9,0.4l0,0.3l-0.5,0.1
			C884.8,60.6,884.5,60.5,884.3,60.6z M885.3,61.6c-0.1-0.3,0.1-0.6,0.5-0.7l0.3-0.1l0.1,0.6L885.3,61.6z M887.4,60.1
			c-0.3,0.1-0.5-0.1-0.6-0.5l0.8-0.1L887.4,60.1z M891.7,57.8l0-0.3c0.2,0,0.4-0.2,0.8-0.4l0.1,0.6L891.7,57.8z M893,57
			c-0.1-0.3,0.1-0.6,0.5-0.7l0.3-0.1l0.1,0.6L893,57z M894.5,57.4l0.3,0c0.1,0.4-0.1,0.7-0.4,0.7l-0.3,0
			C894,57.8,894.1,57.5,894.5,57.4z M903.3,43.8l-0.3,0.1l0.3-0.6l0.8-0.1l0,0.3C903.9,43.4,903.6,43.5,903.3,43.8z"/>
	</g>
	<path fill="#222424" d="M638.5,158.9l5-5.1c0.6-0.6,1.2-0.9,1.8-0.9c0.5,0,1.2,0.3,1.9,1l4.9,5.3c0.5,0.7,0.7,1.2,0.7,1.8
		c0,0.6-0.3,1.2-0.9,1.9l-4.9,5.4c-0.8,0.8-1.4,1.2-1.8,1.2c-0.7,0-1.2-0.3-1.8-0.9l-5.4-6.2c-0.4-0.5-0.6-1.1-0.6-1.6
		C637.5,160.2,637.9,159.6,638.5,158.9z"/>
</g>
</svg>
