<svg xmlns="http://www.w3.org/2000/svg" viewBox="0 0 50 50" enable-background="new 0 0 50 50"><path fill="#FCFBF6" d="M25.4 2.3C13 2.3 2.9 12.4 2.9 24.8c0 9.5 5.9 17.7 14.3 21-.2-1.8-.4-4.5.1-6.5.4-1.8 2.6-11.2 2.6-11.2s-.7-1.3-.7-3.3c0-3.1 1.8-5.5 4.1-5.5 1.9 0 2.8 1.4 2.8 3.2 0 1.9-1.2 4.8-1.9 7.5-.5 2.2 1.1 4.1 3.3 4.1 4 0 7.1-4.2 7.1-10.3 0-5.4-3.9-9.2-9.4-9.2-6.4 0-10.2 4.8-10.2 9.8 0 1.9.7 4 1.7 5.1.2.2.2.4.2.6-.2.7-.6 2.2-.6 2.6-.1.4-.3.5-.8.3-2.8-1.3-4.6-5.4-4.6-8.7 0-7.1 5.2-13.6 14.9-13.6 7.8 0 13.9 5.6 13.9 13 0 7.8-4.9 14-11.7 14-2.3 0-4.4-1.2-5.2-2.6 0 0-1.1 4.3-1.4 5.4-.5 2-1.9 4.4-2.8 5.9 2.1.7 4.3 1 6.7 1 12.4 0 22.5-10.1 22.5-22.5.1-12.5-10-22.6-22.4-22.6z"/></svg>