<svg xmlns="http://www.w3.org/2000/svg" viewBox="0 0 50 50" enable-background="new 0 0 50 50"><path fill="#FCFBF6" d="M48 11c-1.7.7-3.5 1.2-5.3 1.5 1.9-1.1 3.4-3 4.1-5.1C45 8.5 43 9.2 40.9 9.7c-1.7-1.8-4.1-2.9-6.8-2.9-5.1 0-9.3 4.2-9.3 9.3 0 .7.1 1.4.2 2.1-7.7-.4-14.6-4.1-19.2-9.7-.8 1.4-1.3 3-1.3 4.7 0 3.2 1.6 6.1 4.1 7.7-1.5 0-3-.5-4.2-1.2v.1c0 4.5 3.2 8.3 7.5 9.1-.8.2-1.6.3-2.4.3-.6 0-1.2-.1-1.8-.2 1.2 3.7 4.6 6.4 8.7 6.5-3.2 2.5-7.2 4-11.5 4-.7 0-1.5 0-2.2-.1 4.1 2.6 9 4.2 14.2 4.2 17.1 0 26.4-14.2 26.4-26.4V16c1.9-1.6 3.5-3.2 4.7-5z"/></svg>